<svg width="266" height="53" viewBox="0 0 266 53" fill="none" xmlns="http://www.w3.org/2000/svg">
<path d="M16.168 52.624L16.104 52.688L16.168 52.752C16.232 52.752 16.296 52.752 16.296 52.688C16.232 52.688 16.168 52.624 16.168 52.624ZM16.168 49.424C16.104 49.424 16.104 49.488 16.104 49.552C16.104 49.68 16.104 49.68 16.168 49.68C16.232 49.68 16.296 49.68 16.296 49.552C16.296 49.488 16.232 49.424 16.168 49.424ZM16.168 46.224C16.04 46.224 16.04 46.288 16.04 46.416C16.04 46.544 16.04 46.608 16.168 46.608C16.296 46.608 16.36 46.544 16.36 46.416C16.36 46.288 16.296 46.224 16.168 46.224ZM16.168 43.088C16.04 43.088 15.976 43.152 15.976 43.28C15.976 43.408 16.04 43.472 16.168 43.472C16.296 43.472 16.424 43.408 16.424 43.28C16.424 43.152 16.296 43.088 16.168 43.088ZM13.16 52.624L13.096 52.688C13.096 52.752 13.096 52.752 13.16 52.752C13.16 52.752 13.224 52.752 13.224 52.688L13.16 52.624ZM13.16 49.424C13.032 49.424 13.032 49.488 13.032 49.552C13.032 49.68 13.032 49.68 13.16 49.68C13.224 49.68 13.288 49.68 13.288 49.552C13.288 49.488 13.224 49.424 13.16 49.424ZM13.16 46.224C13.032 46.224 12.968 46.288 12.968 46.416C12.968 46.544 13.032 46.608 13.16 46.608C13.288 46.608 13.352 46.544 13.352 46.416C13.352 46.288 13.288 46.224 13.16 46.224ZM10.216 52.688L10.152 52.624L10.088 52.688C10.088 52.752 10.088 52.752 10.152 52.752C10.152 52.752 10.216 52.752 10.216 52.688ZM7.08 52.624L7.016 52.688L7.08 52.752C7.08 52.752 7.144 52.752 7.144 52.688L7.08 52.624ZM4.136 52.688L4.072 52.624L4.008 52.688C4.008 52.752 4.008 52.752 4.072 52.752C4.072 52.752 4.136 52.752 4.136 52.688ZM7.912 50H9.192V17.616H7.912V50ZM6.312 48.656V47.952L0.872 52.496C0.744 52.624 0.68 52.752 0.808 52.88C0.808 52.944 0.872 52.944 1 52.944C1.064 52.944 1.128 52.944 1.192 52.88L6.312 48.656ZM16.424 39.952C16.296 39.824 16.168 39.824 16.04 39.952L10.792 44.24V44.944L16.36 40.336C16.488 40.272 16.488 40.144 16.424 39.952ZM53.8195 52.624L53.7555 52.688L53.8195 52.752C53.8835 52.752 53.9475 52.752 53.9475 52.688C53.8835 52.688 53.8195 52.624 53.8195 52.624ZM53.8195 49.424C53.7555 49.424 53.7555 49.488 53.7555 49.552C53.7555 49.68 53.7555 49.68 53.8195 49.68C53.8835 49.68 53.9475 49.68 53.9475 49.552C53.9475 49.488 53.8835 49.424 53.8195 49.424ZM53.8195 46.224C53.6915 46.224 53.6915 46.288 53.6915 46.416C53.6915 46.544 53.6915 46.608 53.8195 46.608C53.9475 46.608 54.0115 46.544 54.0115 46.416C54.0115 46.288 53.9475 46.224 53.8195 46.224ZM53.8195 43.088C53.6915 43.088 53.6275 43.152 53.6275 43.28C53.6275 43.408 53.6915 43.472 53.8195 43.472C53.9475 43.472 54.0755 43.408 54.0755 43.28C54.0755 43.152 53.9475 43.088 53.8195 43.088ZM53.8195 39.888C53.6275 39.888 53.5635 40.016 53.5635 40.144C53.5635 40.336 53.6275 40.4 53.8195 40.4C53.9475 40.4 54.0755 40.336 54.0755 40.144C54.0755 40.016 53.9475 39.888 53.8195 39.888ZM53.8195 36.688C53.6275 36.688 53.5635 36.816 53.5635 37.008C53.5635 37.2 53.6275 37.264 53.8195 37.264C54.0115 37.264 54.1395 37.2 54.1395 37.008C54.1395 36.816 54.0115 36.688 53.8195 36.688ZM53.8195 33.488C53.5635 33.488 53.4995 33.616 53.4995 33.872C53.4995 34.128 53.5635 34.192 53.8195 34.192C54.0755 34.192 54.2035 34.128 54.2035 33.872C54.2035 33.616 54.0755 33.488 53.8195 33.488ZM53.8195 30.288C53.5635 30.288 53.4355 30.48 53.4355 30.736C53.4355 30.992 53.5635 31.12 53.8195 31.12C54.0755 31.12 54.2675 30.992 54.2675 30.736C54.2675 30.48 54.0755 30.288 53.8195 30.288ZM53.8195 27.152C53.5635 27.152 53.4355 27.28 53.4355 27.536C53.4355 27.856 53.5635 27.984 53.8195 27.984C54.0755 27.984 54.2675 27.856 54.2675 27.536C54.2675 27.28 54.0755 27.152 53.8195 27.152ZM53.8195 23.952C53.4995 23.952 53.3715 24.144 53.3715 24.4C53.3715 24.784 53.4995 24.912 53.8195 24.912C54.1395 24.912 54.3315 24.784 54.3315 24.4C54.3315 24.144 54.1395 23.952 53.8195 23.952ZM53.8195 20.752C53.4355 20.752 53.3075 20.944 53.3075 21.264C53.3075 21.648 53.4355 21.84 53.8195 21.84C54.2035 21.84 54.3955 21.648 54.3955 21.264C54.3955 20.944 54.2035 20.752 53.8195 20.752ZM53.8195 17.552C53.4355 17.552 53.3075 17.744 53.3075 18.128C53.3075 18.512 53.4355 18.704 53.8195 18.704C54.2035 18.704 54.3955 18.512 54.3955 18.128C54.3955 17.744 54.2035 17.552 53.8195 17.552ZM50.6835 52.624L50.6195 52.688L50.6835 52.752C50.7475 52.752 50.8115 52.752 50.8115 52.688C50.7475 52.688 50.6835 52.624 50.6835 52.624ZM50.6835 49.424C50.6195 49.424 50.6195 49.488 50.6195 49.552C50.6195 49.68 50.6195 49.68 50.6835 49.68C50.7475 49.68 50.8115 49.68 50.8115 49.552C50.8115 49.488 50.7475 49.424 50.6835 49.424ZM50.6835 46.224C50.5555 46.224 50.5555 46.288 50.5555 46.416C50.5555 46.544 50.5555 46.608 50.6835 46.608C50.8115 46.608 50.8755 46.544 50.8755 46.416C50.8755 46.288 50.8115 46.224 50.6835 46.224ZM50.6835 43.088C50.5555 43.088 50.4915 43.152 50.4915 43.28C50.4915 43.408 50.5555 43.472 50.6835 43.472C50.8115 43.472 50.9395 43.408 50.9395 43.28C50.9395 43.152 50.8115 43.088 50.6835 43.088ZM50.6835 39.888C50.4915 39.888 50.4275 40.016 50.4275 40.144C50.4275 40.336 50.4915 40.4 50.6835 40.4C50.8115 40.4 50.9395 40.336 50.9395 40.144C50.9395 40.016 50.8115 39.888 50.6835 39.888ZM50.6835 36.688C50.4915 36.688 50.4275 36.816 50.4275 37.008C50.4275 37.2 50.4915 37.264 50.6835 37.264C50.8755 37.264 51.0035 37.2 51.0035 37.008C51.0035 36.816 50.8755 36.688 50.6835 36.688ZM50.6835 33.488C50.4275 33.488 50.3635 33.616 50.3635 33.872C50.3635 34.128 50.4275 34.192 50.6835 34.192C50.9395 34.192 51.0675 34.128 51.0675 33.872C51.0675 33.616 50.9395 33.488 50.6835 33.488ZM50.6835 30.288C50.4275 30.288 50.2995 30.48 50.2995 30.736C50.2995 30.992 50.4275 31.12 50.6835 31.12C50.9395 31.12 51.1315 30.992 51.1315 30.736C51.1315 30.48 50.9395 30.288 50.6835 30.288ZM50.6835 27.152C50.4275 27.152 50.2995 27.28 50.2995 27.536C50.2995 27.856 50.4275 27.984 50.6835 27.984C50.9395 27.984 51.1315 27.856 51.1315 27.536C51.1315 27.28 50.9395 27.152 50.6835 27.152ZM50.6835 23.952C50.3635 23.952 50.2355 24.144 50.2355 24.4C50.2355 24.784 50.3635 24.912 50.6835 24.912C51.0035 24.912 51.1955 24.784 51.1955 24.4C51.1955 24.144 51.0035 23.952 50.6835 23.952ZM50.6835 20.752C50.2995 20.752 50.1715 20.944 50.1715 21.264C50.1715 21.648 50.2995 21.84 50.6835 21.84C51.0675 21.84 51.2595 21.648 51.2595 21.264C51.2595 20.944 51.0675 20.752 50.6835 20.752ZM47.5475 52.624L47.4835 52.688L47.5475 52.752C47.6115 52.752 47.6755 52.752 47.6755 52.688C47.6115 52.688 47.5475 52.624 47.5475 52.624ZM44.4115 52.624L44.3475 52.688L44.4115 52.752C44.4755 52.752 44.5395 52.752 44.5395 52.688C44.4755 52.688 44.4115 52.624 44.4115 52.624ZM41.2755 52.624L41.2115 52.688L41.2755 52.752C41.3395 52.752 41.4035 52.752 41.4035 52.688C41.3395 52.688 41.2755 52.624 41.2755 52.624ZM41.2755 49.424C41.2115 49.424 41.2115 49.488 41.2115 49.552C41.2115 49.68 41.2115 49.68 41.2755 49.68C41.3395 49.68 41.4035 49.68 41.4035 49.552C41.4035 49.488 41.3395 49.424 41.2755 49.424ZM41.2755 46.224C41.1475 46.224 41.1475 46.288 41.1475 46.416C41.1475 46.544 41.1475 46.608 41.2755 46.608C41.4035 46.608 41.4675 46.544 41.4675 46.416C41.4675 46.288 41.4035 46.224 41.2755 46.224ZM41.2755 36.688C41.0835 36.688 41.0195 36.816 41.0195 37.008C41.0195 37.2 41.0835 37.264 41.2755 37.264C41.4675 37.264 41.5955 37.2 41.5955 37.008C41.5955 36.816 41.4675 36.688 41.2755 36.688ZM41.2755 33.488C41.0195 33.488 40.9555 33.616 40.9555 33.872C40.9555 34.128 41.0195 34.192 41.2755 34.192C41.5315 34.192 41.6595 34.128 41.6595 33.872C41.6595 33.616 41.5315 33.488 41.2755 33.488ZM41.2755 30.288C41.0195 30.288 40.8915 30.48 40.8915 30.736C40.8915 30.992 41.0195 31.12 41.2755 31.12C41.5315 31.12 41.7235 30.992 41.7235 30.736C41.7235 30.48 41.5315 30.288 41.2755 30.288ZM41.2755 27.152C41.0195 27.152 40.8915 27.28 40.8915 27.536C40.8915 27.856 41.0195 27.984 41.2755 27.984C41.5315 27.984 41.7235 27.856 41.7235 27.536C41.7235 27.28 41.5315 27.152 41.2755 27.152ZM38.1395 52.624L38.0755 52.688L38.1395 52.752C38.2035 52.752 38.2675 52.752 38.2675 52.688C38.2035 52.688 38.1395 52.624 38.1395 52.624ZM38.1395 49.424C38.0755 49.424 38.0755 49.488 38.0755 49.552C38.0755 49.68 38.0755 49.68 38.1395 49.68C38.2035 49.68 38.2675 49.68 38.2675 49.552C38.2675 49.488 38.2035 49.424 38.1395 49.424ZM38.1395 46.224C38.0115 46.224 38.0115 46.288 38.0115 46.416C38.0115 46.544 38.0115 46.608 38.1395 46.608C38.2675 46.608 38.3315 46.544 38.3315 46.416C38.3315 46.288 38.2675 46.224 38.1395 46.224ZM38.1395 43.088C38.0115 43.088 37.9475 43.152 37.9475 43.28C37.9475 43.408 38.0115 43.472 38.1395 43.472C38.2675 43.472 38.3955 43.408 38.3955 43.28C38.3955 43.152 38.2675 43.088 38.1395 43.088ZM38.1395 33.488C37.8835 33.488 37.8195 33.616 37.8195 33.872C37.8195 34.128 37.8835 34.192 38.1395 34.192C38.3955 34.192 38.5235 34.128 38.5235 33.872C38.5235 33.616 38.3955 33.488 38.1395 33.488ZM38.1395 30.288C37.8835 30.288 37.7555 30.48 37.7555 30.736C37.7555 30.992 37.8835 31.12 38.1395 31.12C38.3955 31.12 38.5875 30.992 38.5875 30.736C38.5875 30.48 38.3955 30.288 38.1395 30.288ZM38.1395 27.152C37.8835 27.152 37.7555 27.28 37.7555 27.536C37.7555 27.856 37.8835 27.984 38.1395 27.984C38.3955 27.984 38.5875 27.856 38.5875 27.536C38.5875 27.28 38.3955 27.152 38.1395 27.152ZM35.0035 52.624L34.9395 52.688L35.0035 52.752C35.0675 52.752 35.1315 52.752 35.1315 52.688C35.0675 52.688 35.0035 52.624 35.0035 52.624ZM35.0035 49.424C34.9395 49.424 34.9395 49.488 34.9395 49.552C34.9395 49.68 34.9395 49.68 35.0035 49.68C35.0675 49.68 35.1315 49.68 35.1315 49.552C35.1315 49.488 35.0675 49.424 35.0035 49.424ZM35.0035 46.224C34.8755 46.224 34.8755 46.288 34.8755 46.416C34.8755 46.544 34.8755 46.608 35.0035 46.608C35.1315 46.608 35.1955 46.544 35.1955 46.416C35.1955 46.288 35.1315 46.224 35.0035 46.224ZM35.0035 43.088C34.8755 43.088 34.8115 43.152 34.8115 43.28C34.8115 43.408 34.8755 43.472 35.0035 43.472C35.1315 43.472 35.2595 43.408 35.2595 43.28C35.2595 43.152 35.1315 43.088 35.0035 43.088ZM35.0035 39.888C34.8115 39.888 34.7475 40.016 34.7475 40.144C34.7475 40.336 34.8115 40.4 35.0035 40.4C35.1315 40.4 35.2595 40.336 35.2595 40.144C35.2595 40.016 35.1315 39.888 35.0035 39.888ZM31.8675 52.624L31.8035 52.688L31.8675 52.752C31.9315 52.752 31.9955 52.752 31.9955 52.688C31.9315 52.688 31.8675 52.624 31.8675 52.624ZM31.8675 49.424C31.8035 49.424 31.8035 49.488 31.8035 49.552C31.8035 49.68 31.8035 49.68 31.8675 49.68C31.9315 49.68 31.9955 49.68 31.9955 49.552C31.9955 49.488 31.9315 49.424 31.8675 49.424ZM31.8675 46.224C31.7395 46.224 31.7395 46.288 31.7395 46.416C31.7395 46.544 31.7395 46.608 31.8675 46.608C31.9955 46.608 32.0595 46.544 32.0595 46.416C32.0595 46.288 31.9955 46.224 31.8675 46.224ZM31.8675 43.088C31.7395 43.088 31.6755 43.152 31.6755 43.28C31.6755 43.408 31.7395 43.472 31.8675 43.472C31.9955 43.472 32.1235 43.408 32.1235 43.28C32.1235 43.152 31.9955 43.088 31.8675 43.088ZM31.8675 39.888C31.6755 39.888 31.6115 40.016 31.6115 40.144C31.6115 40.336 31.6755 40.4 31.8675 40.4C31.9955 40.4 32.1235 40.336 32.1235 40.144C32.1235 40.016 31.9955 39.888 31.8675 39.888ZM31.8675 36.688C31.6755 36.688 31.6115 36.816 31.6115 37.008C31.6115 37.2 31.6755 37.264 31.8675 37.264C32.0595 37.264 32.1875 37.2 32.1875 37.008C32.1875 36.816 32.0595 36.688 31.8675 36.688ZM31.8675 33.488C31.6115 33.488 31.5475 33.616 31.5475 33.872C31.5475 34.128 31.6115 34.192 31.8675 34.192C32.1235 34.192 32.2515 34.128 32.2515 33.872C32.2515 33.616 32.1235 33.488 31.8675 33.488ZM28.7315 52.624L28.6675 52.688L28.7315 52.752C28.7955 52.752 28.8595 52.752 28.8595 52.688C28.7955 52.688 28.7315 52.624 28.7315 52.624ZM28.7315 49.424C28.6675 49.424 28.6675 49.488 28.6675 49.552C28.6675 49.68 28.6675 49.68 28.7315 49.68C28.7955 49.68 28.8595 49.68 28.8595 49.552C28.8595 49.488 28.7955 49.424 28.7315 49.424ZM28.7315 46.224C28.6035 46.224 28.6035 46.288 28.6035 46.416C28.6035 46.544 28.6035 46.608 28.7315 46.608C28.8595 46.608 28.9235 46.544 28.9235 46.416C28.9235 46.288 28.8595 46.224 28.7315 46.224ZM28.7315 43.088C28.6035 43.088 28.5395 43.152 28.5395 43.28C28.5395 43.408 28.6035 43.472 28.7315 43.472C28.8595 43.472 28.9875 43.408 28.9875 43.28C28.9875 43.152 28.8595 43.088 28.7315 43.088ZM28.7315 39.888C28.5395 39.888 28.4755 40.016 28.4755 40.144C28.4755 40.336 28.5395 40.4 28.7315 40.4C28.8595 40.4 28.9875 40.336 28.9875 40.144C28.9875 40.016 28.8595 39.888 28.7315 39.888ZM28.7315 36.688C28.5395 36.688 28.4755 36.816 28.4755 37.008C28.4755 37.2 28.5395 37.264 28.7315 37.264C28.9235 37.264 29.0515 37.2 29.0515 37.008C29.0515 36.816 28.9235 36.688 28.7315 36.688ZM28.7315 33.488C28.4755 33.488 28.4115 33.616 28.4115 33.872C28.4115 34.128 28.4755 34.192 28.7315 34.192C28.9875 34.192 29.1155 34.128 29.1155 33.872C29.1155 33.616 28.9875 33.488 28.7315 33.488ZM25.5955 52.624L25.5315 52.688L25.5955 52.752C25.6595 52.752 25.7235 52.752 25.7235 52.688C25.6595 52.688 25.5955 52.624 25.5955 52.624ZM22.4595 52.624L22.3955 52.688L22.4595 52.752C22.5235 52.752 22.5875 52.752 22.5875 52.688C22.5235 52.688 22.4595 52.624 22.4595 52.624ZM19.3235 52.624L19.2595 52.688L19.3235 52.752C19.3875 52.752 19.4515 52.752 19.4515 52.688C19.3875 52.688 19.3235 52.624 19.3235 52.624ZM19.3235 49.424C19.2595 49.424 19.2595 49.488 19.2595 49.552C19.2595 49.68 19.2595 49.68 19.3235 49.68C19.3875 49.68 19.4515 49.68 19.4515 49.552C19.4515 49.488 19.3875 49.424 19.3235 49.424ZM19.3235 46.224C19.1955 46.224 19.1955 46.288 19.1955 46.416C19.1955 46.544 19.1955 46.608 19.3235 46.608C19.4515 46.608 19.5155 46.544 19.5155 46.416C19.5155 46.288 19.4515 46.224 19.3235 46.224ZM19.3235 43.088C19.1955 43.088 19.1315 43.152 19.1315 43.28C19.1315 43.408 19.1955 43.472 19.3235 43.472C19.4515 43.472 19.5795 43.408 19.5795 43.28C19.5795 43.152 19.4515 43.088 19.3235 43.088ZM19.3235 39.888C19.1315 39.888 19.0675 40.016 19.0675 40.144C19.0675 40.336 19.1315 40.4 19.3235 40.4C19.4515 40.4 19.5795 40.336 19.5795 40.144C19.5795 40.016 19.4515 39.888 19.3235 39.888ZM45.6275 23.248L45.5635 47.376H45.3075L33.8515 30.992L32.7635 31.76L45.4995 50H46.7795L46.8435 40.976L46.9075 22.416L45.6275 23.248ZM54.0755 14.864C53.9475 14.672 53.8195 14.672 53.6915 14.8L32.4435 29.008L24.4435 17.616H23.1635L23.0995 40.4V50H24.3795V39.824L24.4435 20.304H24.6355L31.2915 29.712L26.0435 33.232V33.872L54.0115 15.248C54.1395 15.12 54.1395 14.992 54.0755 14.864ZM15.9955 40.272C16.0595 40.4 16.1235 40.4 16.1875 40.4C16.2515 40.4 16.3155 40.4 16.3795 40.336L21.5635 36.88V36.24L16.0595 39.888C15.9315 40.016 15.8675 40.144 15.9955 40.272ZM66.9325 23.44V50H68.2125V24.08L66.9325 23.44ZM81.3325 27.344L68.2125 21.328V18.896H73.0765L78.3885 18.96L78.5805 17.872L78.0685 17.616H60.2125L53.9405 14.736C53.8125 14.672 53.6845 14.736 53.6205 14.864C53.4925 15.056 53.5565 15.184 53.7485 15.248L81.1405 27.792L81.2045 27.856C81.3325 27.856 81.4605 27.792 81.4605 27.664C81.5245 27.536 81.4605 27.472 81.3325 27.344ZM62.9645 18.896H66.9325V20.688L62.9645 18.896ZM81.2045 52.624L81.1405 52.688L81.2045 52.752C81.2685 52.752 81.3325 52.752 81.3325 52.688C81.2685 52.688 81.2045 52.624 81.2045 52.624ZM81.2045 49.424C81.1405 49.424 81.1405 49.488 81.1405 49.552C81.1405 49.68 81.1405 49.68 81.2045 49.68C81.2685 49.68 81.3325 49.68 81.3325 49.552C81.3325 49.488 81.2685 49.424 81.2045 49.424ZM81.2045 46.224C81.0765 46.224 81.0765 46.288 81.0765 46.416C81.0765 46.544 81.0765 46.608 81.2045 46.608C81.3325 46.608 81.3965 46.544 81.3965 46.416C81.3965 46.288 81.3325 46.224 81.2045 46.224ZM81.2045 43.088C81.0765 43.088 81.0125 43.152 81.0125 43.28C81.0125 43.408 81.0765 43.472 81.2045 43.472C81.3325 43.472 81.4605 43.408 81.4605 43.28C81.4605 43.152 81.3325 43.088 81.2045 43.088ZM81.2045 39.888C81.0125 39.888 80.9485 40.016 80.9485 40.144C80.9485 40.336 81.0125 40.4 81.2045 40.4C81.3325 40.4 81.4605 40.336 81.4605 40.144C81.4605 40.016 81.3325 39.888 81.2045 39.888ZM81.2045 36.688C81.0125 36.688 80.9485 36.816 80.9485 37.008C80.9485 37.2 81.0125 37.264 81.2045 37.264C81.3965 37.264 81.5245 37.2 81.5245 37.008C81.5245 36.816 81.3965 36.688 81.2045 36.688ZM81.2045 33.488C80.9485 33.488 80.8845 33.616 80.8845 33.872C80.8845 34.128 80.9485 34.192 81.2045 34.192C81.4605 34.192 81.5885 34.128 81.5885 33.872C81.5885 33.616 81.4605 33.488 81.2045 33.488ZM81.2045 30.288C80.9485 30.288 80.8205 30.48 80.8205 30.736C80.8205 30.992 80.9485 31.12 81.2045 31.12C81.4605 31.12 81.6525 30.992 81.6525 30.736C81.6525 30.48 81.4605 30.288 81.2045 30.288ZM78.1965 52.624L78.1325 52.688C78.1325 52.752 78.1325 52.752 78.1965 52.752C78.1965 52.752 78.2605 52.752 78.2605 52.688L78.1965 52.624ZM78.1965 49.424C78.0685 49.424 78.0685 49.488 78.0685 49.552C78.0685 49.68 78.0685 49.68 78.1965 49.68C78.2605 49.68 78.3245 49.68 78.3245 49.552C78.3245 49.488 78.2605 49.424 78.1965 49.424ZM78.1965 46.224C78.0685 46.224 78.0045 46.288 78.0045 46.416C78.0045 46.544 78.0685 46.608 78.1965 46.608C78.2605 46.608 78.3245 46.544 78.3245 46.416C78.3245 46.288 78.2605 46.224 78.1965 46.224ZM78.1965 43.088C78.0685 43.088 78.0045 43.152 78.0045 43.28C78.0045 43.408 78.0685 43.472 78.1965 43.472C78.3245 43.472 78.3885 43.408 78.3885 43.28C78.3885 43.152 78.3245 43.088 78.1965 43.088ZM78.1965 39.888C78.0045 39.888 77.9405 40.016 77.9405 40.144C77.9405 40.336 78.0045 40.4 78.1965 40.4C78.3245 40.4 78.4525 40.336 78.4525 40.144C78.4525 40.016 78.3245 39.888 78.1965 39.888ZM78.1965 36.688C77.9405 36.688 77.8765 36.816 77.8765 37.008C77.8765 37.2 77.9405 37.264 78.1965 37.264C78.3885 37.264 78.5165 37.2 78.5165 37.008C78.5165 36.816 78.3885 36.688 78.1965 36.688ZM78.1965 33.488C77.9405 33.488 77.8765 33.616 77.8765 33.872C77.8765 34.128 77.9405 34.192 78.1965 34.192C78.3885 34.192 78.5165 34.128 78.5165 33.872C78.5165 33.616 78.3885 33.488 78.1965 33.488ZM78.1965 30.288C77.9405 30.288 77.8125 30.48 77.8125 30.736C77.8125 30.992 77.9405 31.12 78.1965 31.12C78.4525 31.12 78.5805 30.992 78.5805 30.736C78.5805 30.48 78.4525 30.288 78.1965 30.288ZM75.1245 52.624L75.0605 52.688L75.1245 52.752C75.1245 52.752 75.1885 52.752 75.1885 52.688L75.1245 52.624ZM75.1245 49.424C75.0605 49.424 75.0605 49.488 75.0605 49.552C75.0605 49.68 75.0605 49.68 75.1245 49.68C75.1885 49.68 75.2525 49.68 75.2525 49.552C75.2525 49.488 75.1885 49.424 75.1245 49.424ZM75.1245 46.224C74.9965 46.224 74.9965 46.288 74.9965 46.416C74.9965 46.544 74.9965 46.608 75.1245 46.608C75.2525 46.608 75.3165 46.544 75.3165 46.416C75.3165 46.288 75.2525 46.224 75.1245 46.224ZM75.1245 43.088C74.9965 43.088 74.9325 43.152 74.9325 43.28C74.9325 43.408 74.9965 43.472 75.1245 43.472C75.2525 43.472 75.3805 43.408 75.3805 43.28C75.3805 43.152 75.2525 43.088 75.1245 43.088ZM75.1245 39.888C74.9325 39.888 74.8685 40.016 74.8685 40.144C74.8685 40.336 74.9325 40.4 75.1245 40.4C75.2525 40.4 75.3805 40.336 75.3805 40.144C75.3805 40.016 75.2525 39.888 75.1245 39.888ZM75.1245 36.688C74.9325 36.688 74.8685 36.816 74.8685 37.008C74.8685 37.2 74.9325 37.264 75.1245 37.264C75.3165 37.264 75.4445 37.2 75.4445 37.008C75.4445 36.816 75.3165 36.688 75.1245 36.688ZM75.1245 33.488C74.8685 33.488 74.8045 33.616 74.8045 33.872C74.8045 34.128 74.8685 34.192 75.1245 34.192C75.3805 34.192 75.5085 34.128 75.5085 33.872C75.5085 33.616 75.3805 33.488 75.1245 33.488ZM75.1245 30.288C74.8685 30.288 74.7405 30.48 74.7405 30.736C74.7405 30.992 74.8685 31.12 75.1245 31.12C75.3805 31.12 75.5085 30.992 75.5085 30.736C75.5085 30.48 75.3805 30.288 75.1245 30.288ZM75.1245 27.152C74.8685 27.152 74.7405 27.28 74.7405 27.536C74.7405 27.856 74.8685 27.984 75.1245 27.984C75.3805 27.984 75.5725 27.856 75.5725 27.536C75.5725 27.28 75.3805 27.152 75.1245 27.152ZM72.1805 52.688L72.1165 52.624L72.0525 52.688C72.0525 52.752 72.0525 52.752 72.1165 52.752C72.1165 52.752 72.1805 52.752 72.1805 52.688ZM72.1165 49.424C71.9885 49.424 71.9885 49.488 71.9885 49.552C71.9885 49.68 71.9885 49.68 72.1165 49.68C72.1805 49.68 72.2445 49.68 72.2445 49.552C72.2445 49.488 72.1805 49.424 72.1165 49.424ZM72.1165 46.224C71.9885 46.224 71.9245 46.288 71.9245 46.416C71.9245 46.544 71.9885 46.608 72.1165 46.608C72.1805 46.608 72.2445 46.544 72.2445 46.416C72.2445 46.288 72.1805 46.224 72.1165 46.224ZM72.1165 43.088C71.9885 43.088 71.9245 43.152 71.9245 43.28C71.9245 43.408 71.9885 43.472 72.1165 43.472C72.2445 43.472 72.3085 43.408 72.3085 43.28C72.3085 43.152 72.2445 43.088 72.1165 43.088ZM72.1165 39.888C71.9245 39.888 71.8605 40.016 71.8605 40.144C71.8605 40.336 71.9245 40.4 72.1165 40.4C72.2445 40.4 72.3725 40.336 72.3725 40.144C72.3725 40.016 72.2445 39.888 72.1165 39.888ZM72.1165 36.688C71.8605 36.688 71.7965 36.816 71.7965 37.008C71.7965 37.2 71.8605 37.264 72.1165 37.264C72.3085 37.264 72.4365 37.2 72.4365 37.008C72.4365 36.816 72.3085 36.688 72.1165 36.688ZM72.1165 33.488C71.8605 33.488 71.7325 33.616 71.7325 33.872C71.7325 34.128 71.8605 34.192 72.1165 34.192C72.3085 34.192 72.4365 34.128 72.4365 33.872C72.4365 33.616 72.3085 33.488 72.1165 33.488ZM72.1165 30.288C71.8605 30.288 71.7325 30.48 71.7325 30.736C71.7325 30.992 71.8605 31.12 72.1165 31.12C72.3725 31.12 72.5005 30.992 72.5005 30.736C72.5005 30.48 72.3725 30.288 72.1165 30.288ZM72.1165 27.152C71.7965 27.152 71.6685 27.28 71.6685 27.536C71.6685 27.856 71.7965 27.984 72.1165 27.984C72.3725 27.984 72.5645 27.856 72.5645 27.536C72.5645 27.28 72.3725 27.152 72.1165 27.152ZM69.0445 52.624L68.9805 52.688L69.0445 52.752C69.0445 52.752 69.1085 52.752 69.1085 52.688L69.0445 52.624ZM66.1005 52.688L66.0365 52.624L65.9725 52.688C65.9725 52.752 65.9725 52.752 66.0365 52.752C66.0365 52.752 66.1005 52.752 66.1005 52.688ZM62.9645 52.624L62.9005 52.688L62.9645 52.752C62.9645 52.752 63.0285 52.752 63.0285 52.688L62.9645 52.624ZM62.9645 49.424C62.8365 49.424 62.8365 49.488 62.8365 49.552C62.8365 49.68 62.8365 49.68 62.9645 49.68C63.0285 49.68 63.0925 49.68 63.0925 49.552C63.0925 49.488 63.0285 49.424 62.9645 49.424ZM62.9645 46.224C62.8365 46.224 62.8365 46.288 62.8365 46.416C62.8365 46.544 62.8365 46.608 62.9645 46.608C63.0925 46.608 63.1565 46.544 63.1565 46.416C63.1565 46.288 63.0925 46.224 62.9645 46.224ZM62.9645 43.088C62.8365 43.088 62.7725 43.152 62.7725 43.28C62.7725 43.408 62.8365 43.472 62.9645 43.472C63.0925 43.472 63.1565 43.408 63.1565 43.28C63.1565 43.152 63.0925 43.088 62.9645 43.088ZM62.9645 39.888C62.7725 39.888 62.7085 40.016 62.7085 40.144C62.7085 40.336 62.7725 40.4 62.9645 40.4C63.0925 40.4 63.2205 40.336 63.2205 40.144C63.2205 40.016 63.0925 39.888 62.9645 39.888ZM62.9645 36.688C62.7085 36.688 62.6445 36.816 62.6445 37.008C62.6445 37.2 62.7085 37.264 62.9645 37.264C63.1565 37.264 63.2845 37.2 63.2845 37.008C63.2845 36.816 63.1565 36.688 62.9645 36.688ZM62.9645 33.488C62.7085 33.488 62.6445 33.616 62.6445 33.872C62.6445 34.128 62.7085 34.192 62.9645 34.192C63.1565 34.192 63.2845 34.128 63.2845 33.872C63.2845 33.616 63.1565 33.488 62.9645 33.488ZM62.9645 30.288C62.7085 30.288 62.5805 30.48 62.5805 30.736C62.5805 30.992 62.7085 31.12 62.9645 31.12C63.2205 31.12 63.3485 30.992 63.3485 30.736C63.3485 30.48 63.2205 30.288 62.9645 30.288ZM62.9645 27.152C62.6445 27.152 62.5165 27.28 62.5165 27.536C62.5165 27.856 62.6445 27.984 62.9645 27.984C63.2205 27.984 63.4125 27.856 63.4125 27.536C63.4125 27.28 63.2205 27.152 62.9645 27.152ZM62.9645 23.952C62.6445 23.952 62.5165 24.144 62.5165 24.4C62.5165 24.784 62.6445 24.912 62.9645 24.912C63.2845 24.912 63.4765 24.784 63.4765 24.4C63.4765 24.144 63.2845 23.952 62.9645 23.952ZM60.0205 52.688L59.9565 52.624L59.8285 52.688C59.8285 52.752 59.8285 52.752 59.9565 52.752C59.9565 52.752 60.0205 52.752 60.0205 52.688ZM59.9565 49.424C59.8285 49.424 59.8285 49.488 59.8285 49.552C59.8285 49.68 59.8285 49.68 59.9565 49.68C59.9565 49.68 60.0205 49.68 60.0205 49.552C60.0205 49.488 59.9565 49.424 59.9565 49.424ZM59.9565 46.224C59.8285 46.224 59.7645 46.288 59.7645 46.416C59.7645 46.544 59.8285 46.608 59.9565 46.608C60.0205 46.608 60.0845 46.544 60.0845 46.416C60.0845 46.288 60.0205 46.224 59.9565 46.224ZM59.9565 43.088C59.7645 43.088 59.7005 43.152 59.7005 43.28C59.7005 43.408 59.7645 43.472 59.9565 43.472C60.0845 43.472 60.1485 43.408 60.1485 43.28C60.1485 43.152 60.0845 43.088 59.9565 43.088ZM59.9565 39.888C59.7645 39.888 59.7005 40.016 59.7005 40.144C59.7005 40.336 59.7645 40.4 59.9565 40.4C60.0845 40.4 60.2125 40.336 60.2125 40.144C60.2125 40.016 60.0845 39.888 59.9565 39.888ZM59.9565 36.688C59.7005 36.688 59.6365 36.816 59.6365 37.008C59.6365 37.2 59.7005 37.264 59.9565 37.264C60.0845 37.264 60.2125 37.2 60.2125 37.008C60.2125 36.816 60.0845 36.688 59.9565 36.688ZM59.9565 33.488C59.7005 33.488 59.5725 33.616 59.5725 33.872C59.5725 34.128 59.7005 34.192 59.9565 34.192C60.1485 34.192 60.2765 34.128 60.2765 33.872C60.2765 33.616 60.1485 33.488 59.9565 33.488ZM59.9565 30.288C59.6365 30.288 59.5085 30.48 59.5085 30.736C59.5085 30.992 59.6365 31.12 59.9565 31.12C60.2125 31.12 60.3405 30.992 60.3405 30.736C60.3405 30.48 60.2125 30.288 59.9565 30.288ZM59.9565 27.152C59.6365 27.152 59.5085 27.28 59.5085 27.536C59.5085 27.856 59.6365 27.984 59.9565 27.984C60.2125 27.984 60.3405 27.856 60.3405 27.536C60.3405 27.28 60.2125 27.152 59.9565 27.152ZM59.9565 23.952C59.5725 23.952 59.4445 24.144 59.4445 24.4C59.4445 24.784 59.5725 24.912 59.9565 24.912C60.2125 24.912 60.4045 24.784 60.4045 24.4C60.4045 24.144 60.2125 23.952 59.9565 23.952ZM59.9565 20.752C59.5725 20.752 59.3805 20.944 59.3805 21.264C59.3805 21.648 59.5725 21.84 59.9565 21.84C60.2765 21.84 60.4685 21.648 60.4685 21.264C60.4685 20.944 60.2765 20.752 59.9565 20.752ZM56.8845 52.624L56.8205 52.688C56.8205 52.752 56.8205 52.752 56.8845 52.752C56.8845 52.752 56.9485 52.752 56.9485 52.688L56.8845 52.624ZM56.8845 49.424C56.7565 49.424 56.7565 49.488 56.7565 49.552C56.7565 49.68 56.7565 49.68 56.8845 49.68C56.9485 49.68 57.0125 49.68 57.0125 49.552C57.0125 49.488 56.9485 49.424 56.8845 49.424ZM56.8845 46.224C56.7565 46.224 56.6925 46.288 56.6925 46.416C56.6925 46.544 56.7565 46.608 56.8845 46.608C57.0125 46.608 57.0765 46.544 57.0765 46.416C57.0765 46.288 57.0125 46.224 56.8845 46.224ZM56.8845 43.088C56.7565 43.088 56.6925 43.152 56.6925 43.28C56.6925 43.408 56.7565 43.472 56.8845 43.472C57.0125 43.472 57.0765 43.408 57.0765 43.28C57.0765 43.152 57.0125 43.088 56.8845 43.088ZM56.8845 39.888C56.6925 39.888 56.6285 40.016 56.6285 40.144C56.6285 40.336 56.6925 40.4 56.8845 40.4C57.0125 40.4 57.1405 40.336 57.1405 40.144C57.1405 40.016 57.0125 39.888 56.8845 39.888ZM56.8845 36.688C56.6285 36.688 56.5645 36.816 56.5645 37.008C56.5645 37.2 56.6285 37.264 56.8845 37.264C57.0765 37.264 57.2045 37.2 57.2045 37.008C57.2045 36.816 57.0765 36.688 56.8845 36.688ZM56.8845 33.488C56.6285 33.488 56.5645 33.616 56.5645 33.872C56.5645 34.128 56.6285 34.192 56.8845 34.192C57.0765 34.192 57.2045 34.128 57.2045 33.872C57.2045 33.616 57.0765 33.488 56.8845 33.488ZM56.8845 30.288C56.6285 30.288 56.5005 30.48 56.5005 30.736C56.5005 30.992 56.6285 31.12 56.8845 31.12C57.1405 31.12 57.2685 30.992 57.2685 30.736C57.2685 30.48 57.1405 30.288 56.8845 30.288ZM56.8845 27.152C56.5645 27.152 56.4365 27.28 56.4365 27.536C56.4365 27.856 56.5645 27.984 56.8845 27.984C57.1405 27.984 57.3325 27.856 57.3325 27.536C57.3325 27.28 57.1405 27.152 56.8845 27.152ZM56.8845 23.952C56.5005 23.952 56.3725 24.144 56.3725 24.4C56.3725 24.784 56.5005 24.912 56.8845 24.912C57.2045 24.912 57.3965 24.784 57.3965 24.4C57.3965 24.144 57.2045 23.952 56.8845 23.952ZM56.8845 20.752C56.5005 20.752 56.3725 20.944 56.3725 21.264C56.3725 21.648 56.5005 21.84 56.8845 21.84C57.2045 21.84 57.3965 21.648 57.3965 21.264C57.3965 20.944 57.2045 20.752 56.8845 20.752ZM107.556 52.624L107.492 52.688L107.556 52.752C107.62 52.752 107.684 52.752 107.684 52.688C107.62 52.688 107.556 52.624 107.556 52.624ZM107.556 49.424C107.492 49.424 107.492 49.488 107.492 49.552C107.492 49.68 107.492 49.68 107.556 49.68C107.62 49.68 107.684 49.68 107.684 49.552C107.684 49.488 107.62 49.424 107.556 49.424ZM107.556 46.224C107.428 46.224 107.428 46.288 107.428 46.416C107.428 46.544 107.428 46.608 107.556 46.608C107.684 46.608 107.748 46.544 107.748 46.416C107.748 46.288 107.684 46.224 107.556 46.224ZM107.556 43.088C107.428 43.088 107.364 43.152 107.364 43.28C107.364 43.408 107.428 43.472 107.556 43.472C107.684 43.472 107.812 43.408 107.812 43.28C107.812 43.152 107.684 43.088 107.556 43.088ZM107.556 39.888C107.364 39.888 107.3 40.016 107.3 40.144C107.3 40.336 107.364 40.4 107.556 40.4C107.684 40.4 107.812 40.336 107.812 40.144C107.812 40.016 107.684 39.888 107.556 39.888ZM107.556 36.688C107.364 36.688 107.3 36.816 107.3 37.008C107.3 37.2 107.364 37.264 107.556 37.264C107.748 37.264 107.876 37.2 107.876 37.008C107.876 36.816 107.748 36.688 107.556 36.688ZM107.556 33.488C107.3 33.488 107.236 33.616 107.236 33.872C107.236 34.128 107.3 34.192 107.556 34.192C107.812 34.192 107.94 34.128 107.94 33.872C107.94 33.616 107.812 33.488 107.556 33.488ZM107.556 30.288C107.3 30.288 107.172 30.48 107.172 30.736C107.172 30.992 107.3 31.12 107.556 31.12C107.812 31.12 108.004 30.992 108.004 30.736C108.004 30.48 107.812 30.288 107.556 30.288ZM104.292 52.624L104.228 52.688C104.228 52.752 104.228 52.752 104.292 52.752C104.292 52.752 104.356 52.752 104.356 52.688L104.292 52.624ZM104.292 46.224C104.164 46.224 104.1 46.288 104.1 46.416C104.1 46.544 104.164 46.608 104.292 46.608C104.42 46.608 104.484 46.544 104.484 46.416C104.484 46.288 104.42 46.224 104.292 46.224ZM104.292 43.088C104.164 43.088 104.1 43.152 104.1 43.28C104.1 43.408 104.164 43.472 104.292 43.472C104.42 43.472 104.484 43.408 104.484 43.28C104.484 43.152 104.42 43.088 104.292 43.088ZM104.292 39.888C104.1 39.888 104.036 40.016 104.036 40.144C104.036 40.336 104.1 40.4 104.292 40.4C104.42 40.4 104.548 40.336 104.548 40.144C104.548 40.016 104.42 39.888 104.292 39.888ZM104.292 36.688C104.036 36.688 103.972 36.816 103.972 37.008C103.972 37.2 104.036 37.264 104.292 37.264C104.484 37.264 104.612 37.2 104.612 37.008C104.612 36.816 104.484 36.688 104.292 36.688ZM104.292 33.488C104.036 33.488 103.972 33.616 103.972 33.872C103.972 34.128 104.036 34.192 104.292 34.192C104.484 34.192 104.612 34.128 104.612 33.872C104.612 33.616 104.484 33.488 104.292 33.488ZM104.292 30.288C104.036 30.288 103.908 30.48 103.908 30.736C103.908 30.992 104.036 31.12 104.292 31.12C104.548 31.12 104.676 30.992 104.676 30.736C104.676 30.48 104.548 30.288 104.292 30.288ZM100.964 52.624L100.9 52.688L100.964 52.752C101.028 52.752 101.092 52.752 101.092 52.688C101.028 52.688 100.964 52.624 100.964 52.624ZM100.964 46.224C100.836 46.224 100.836 46.288 100.836 46.416C100.836 46.544 100.836 46.608 100.964 46.608C101.092 46.608 101.156 46.544 101.156 46.416C101.156 46.288 101.092 46.224 100.964 46.224ZM100.964 43.088C100.836 43.088 100.772 43.152 100.772 43.28C100.772 43.408 100.836 43.472 100.964 43.472C101.092 43.472 101.22 43.408 101.22 43.28C101.22 43.152 101.092 43.088 100.964 43.088ZM100.964 39.888C100.772 39.888 100.708 40.016 100.708 40.144C100.708 40.336 100.772 40.4 100.964 40.4C101.092 40.4 101.22 40.336 101.22 40.144C101.22 40.016 101.092 39.888 100.964 39.888ZM100.964 36.688C100.772 36.688 100.708 36.816 100.708 37.008C100.708 37.2 100.772 37.264 100.964 37.264C101.156 37.264 101.284 37.2 101.284 37.008C101.284 36.816 101.156 36.688 100.964 36.688ZM100.964 30.288C100.708 30.288 100.58 30.48 100.58 30.736C100.58 30.992 100.708 31.12 100.964 31.12C101.22 31.12 101.412 30.992 101.412 30.736C101.412 30.48 101.22 30.288 100.964 30.288ZM97.6995 52.624L97.6355 52.688C97.6355 52.752 97.6355 52.752 97.6995 52.752C97.6995 52.752 97.7635 52.752 97.7635 52.688L97.6995 52.624ZM97.6995 46.224C97.5715 46.224 97.5075 46.288 97.5075 46.416C97.5075 46.544 97.5715 46.608 97.6995 46.608C97.8275 46.608 97.8915 46.544 97.8915 46.416C97.8915 46.288 97.8275 46.224 97.6995 46.224ZM97.6995 43.088C97.5715 43.088 97.5075 43.152 97.5075 43.28C97.5075 43.408 97.5715 43.472 97.6995 43.472C97.8275 43.472 97.8915 43.408 97.8915 43.28C97.8915 43.152 97.8275 43.088 97.6995 43.088ZM97.6995 39.888C97.5075 39.888 97.4435 40.016 97.4435 40.144C97.4435 40.336 97.5075 40.4 97.6995 40.4C97.8275 40.4 97.9555 40.336 97.9555 40.144C97.9555 40.016 97.8275 39.888 97.6995 39.888ZM97.6995 36.688C97.4435 36.688 97.3795 36.816 97.3795 37.008C97.3795 37.2 97.4435 37.264 97.6995 37.264C97.8915 37.264 98.0195 37.2 98.0195 37.008C98.0195 36.816 97.8915 36.688 97.6995 36.688ZM97.6995 30.288C97.4435 30.288 97.3155 30.48 97.3155 30.736C97.3155 30.992 97.4435 31.12 97.6995 31.12C97.9555 31.12 98.0835 30.992 98.0835 30.736C98.0835 30.48 97.9555 30.288 97.6995 30.288ZM94.3715 52.624L94.3075 52.688L94.3715 52.752C94.4355 52.752 94.4995 52.752 94.4995 52.688C94.4355 52.688 94.3715 52.624 94.3715 52.624ZM94.3715 46.224C94.2435 46.224 94.2435 46.288 94.2435 46.416C94.2435 46.544 94.2435 46.608 94.3715 46.608C94.4995 46.608 94.5635 46.544 94.5635 46.416C94.5635 46.288 94.4995 46.224 94.3715 46.224ZM94.3715 43.088C94.2435 43.088 94.1795 43.152 94.1795 43.28C94.1795 43.408 94.2435 43.472 94.3715 43.472C94.4995 43.472 94.6275 43.408 94.6275 43.28C94.6275 43.152 94.4995 43.088 94.3715 43.088ZM94.3715 39.888C94.1795 39.888 94.1155 40.016 94.1155 40.144C94.1155 40.336 94.1795 40.4 94.3715 40.4C94.4995 40.4 94.6275 40.336 94.6275 40.144C94.6275 40.016 94.4995 39.888 94.3715 39.888ZM94.3715 36.688C94.1795 36.688 94.1155 36.816 94.1155 37.008C94.1155 37.2 94.1795 37.264 94.3715 37.264C94.5635 37.264 94.6915 37.2 94.6915 37.008C94.6915 36.816 94.5635 36.688 94.3715 36.688ZM94.3715 30.288C94.1155 30.288 93.9875 30.48 93.9875 30.736C93.9875 30.992 94.1155 31.12 94.3715 31.12C94.6275 31.12 94.8195 30.992 94.8195 30.736C94.8195 30.48 94.6275 30.288 94.3715 30.288ZM91.1075 52.624L91.0435 52.688C91.0435 52.752 91.0435 52.752 91.1075 52.752C91.1075 52.752 91.1715 52.752 91.1715 52.688L91.1075 52.624ZM87.7795 52.624L87.7155 52.688L87.7795 52.752C87.8435 52.752 87.9075 52.752 87.9075 52.688C87.8435 52.688 87.7795 52.624 87.7795 52.624ZM84.5155 52.624L84.4515 52.688C84.4515 52.752 84.4515 52.752 84.5155 52.752C84.5155 52.752 84.5795 52.752 84.5795 52.688L84.5155 52.624ZM84.5155 49.424C84.3875 49.424 84.3875 49.488 84.3875 49.552C84.3875 49.68 84.3875 49.68 84.5155 49.68C84.5795 49.68 84.6435 49.68 84.6435 49.552C84.6435 49.488 84.5795 49.424 84.5155 49.424ZM84.5155 46.224C84.3875 46.224 84.3235 46.288 84.3235 46.416C84.3235 46.544 84.3875 46.608 84.5155 46.608C84.6435 46.608 84.7075 46.544 84.7075 46.416C84.7075 46.288 84.6435 46.224 84.5155 46.224ZM84.5155 43.088C84.3875 43.088 84.3235 43.152 84.3235 43.28C84.3235 43.408 84.3875 43.472 84.5155 43.472C84.6435 43.472 84.7075 43.408 84.7075 43.28C84.7075 43.152 84.6435 43.088 84.5155 43.088ZM84.5155 39.888C84.3235 39.888 84.2595 40.016 84.2595 40.144C84.2595 40.336 84.3235 40.4 84.5155 40.4C84.6435 40.4 84.7715 40.336 84.7715 40.144C84.7715 40.016 84.6435 39.888 84.5155 39.888ZM84.5155 36.688C84.2595 36.688 84.1955 36.816 84.1955 37.008C84.1955 37.2 84.2595 37.264 84.5155 37.264C84.7075 37.264 84.8355 37.2 84.8355 37.008C84.8355 36.816 84.7075 36.688 84.5155 36.688ZM84.5155 33.488C84.2595 33.488 84.1955 33.616 84.1955 33.872C84.1955 34.128 84.2595 34.192 84.5155 34.192C84.7075 34.192 84.8355 34.128 84.8355 33.872C84.8355 33.616 84.7075 33.488 84.5155 33.488ZM84.5155 30.288C84.2595 30.288 84.1315 30.48 84.1315 30.736C84.1315 30.992 84.2595 31.12 84.5155 31.12C84.7715 31.12 84.8995 30.992 84.8995 30.736C84.8995 30.48 84.7715 30.288 84.5155 30.288ZM91.1075 46.224C90.9795 46.224 90.9155 46.288 90.9155 46.416C90.9155 46.544 90.9795 46.608 91.1075 46.608C91.2355 46.608 91.2995 46.544 91.2995 46.416C91.2995 46.288 91.2355 46.224 91.1075 46.224ZM91.1075 43.088C90.9795 43.088 90.9155 43.152 90.9155 43.28C90.9155 43.408 90.9795 43.472 91.1075 43.472C91.2355 43.472 91.2995 43.408 91.2995 43.28C91.2995 43.152 91.2355 43.088 91.1075 43.088ZM91.1075 39.888C90.9155 39.888 90.8515 40.016 90.8515 40.144C90.8515 40.336 90.9155 40.4 91.1075 40.4C91.2355 40.4 91.3635 40.336 91.3635 40.144C91.3635 40.016 91.2355 39.888 91.1075 39.888ZM91.1075 36.688C90.8515 36.688 90.7875 36.816 90.7875 37.008C90.7875 37.2 90.8515 37.264 91.1075 37.264C91.2995 37.264 91.4275 37.2 91.4275 37.008C91.4275 36.816 91.2995 36.688 91.1075 36.688ZM91.1075 30.288C90.8515 30.288 90.7235 30.48 90.7235 30.736C90.7235 30.992 90.8515 31.12 91.1075 31.12C91.3635 31.12 91.4915 30.992 91.4915 30.736C91.4915 30.48 91.3635 30.288 91.1075 30.288ZM104.484 17.616H88.0995V50H104.612L104.868 48.976L104.676 48.72H89.3795V34.448H101.796L101.988 33.36L101.86 33.104H89.3795V18.896L104.42 18.96L104.676 17.872L104.484 17.616ZM86.4995 27.792V27.28H81.1875C80.9955 27.28 80.9315 27.408 80.9315 27.536C80.9315 27.728 80.9955 27.792 81.1875 27.792H86.4995ZM107.556 27.28H90.9795V27.792H107.556C107.684 27.792 107.812 27.728 107.812 27.536C107.812 27.408 107.684 27.28 107.556 27.28ZM115.755 50V37.712H122.731C124.203 40.016 125.675 42.192 127.083 44.24C128.491 46.288 130.219 48.272 132.203 50.192L132.651 50.384C132.779 50.32 132.907 50.256 133.035 50.128C133.163 50 133.291 49.936 133.483 49.808L133.419 49.552C131.499 47.568 129.771 45.648 128.363 43.728C126.891 41.872 125.483 39.76 124.075 37.456C126.507 36.688 128.427 35.344 129.707 33.424C130.987 31.504 131.691 29.328 131.691 26.896C131.691 24.016 130.859 21.712 129.195 20.048C127.531 18.384 125.163 17.552 122.091 17.552L114.475 17.616V50H115.755ZM115.755 36.432V18.832L122.347 18.768C124.907 18.896 126.891 19.728 128.299 21.136C129.643 22.608 130.347 24.528 130.347 26.96C130.347 29.264 129.707 31.312 128.491 33.04C127.211 34.768 125.419 35.92 123.115 36.496L115.755 36.432ZM137.375 52.56C137.311 52.56 137.311 52.624 137.311 52.624L137.375 52.688L137.439 52.624L137.375 52.56ZM137.375 49.36C137.247 49.36 137.247 49.424 137.247 49.488C137.247 49.552 137.247 49.552 137.375 49.552C137.439 49.552 137.503 49.552 137.503 49.488C137.503 49.424 137.439 49.36 137.375 49.36ZM137.375 46.16C137.247 46.16 137.247 46.224 137.247 46.288C137.247 46.416 137.247 46.48 137.375 46.48C137.503 46.48 137.567 46.416 137.567 46.288C137.567 46.224 137.503 46.16 137.375 46.16ZM137.375 42.96C137.247 42.96 137.183 43.024 137.183 43.152C137.183 43.344 137.247 43.408 137.375 43.408C137.503 43.408 137.567 43.344 137.567 43.152C137.567 43.024 137.503 42.96 137.375 42.96ZM137.375 39.76C137.183 39.76 137.119 39.888 137.119 40.016C137.119 40.208 137.183 40.272 137.375 40.272C137.503 40.272 137.631 40.208 137.631 40.016C137.631 39.888 137.503 39.76 137.375 39.76ZM137.375 36.56C137.119 36.56 137.055 36.688 137.055 36.88C137.055 37.136 137.119 37.2 137.375 37.2C137.567 37.2 137.695 37.136 137.695 36.88C137.695 36.688 137.567 36.56 137.375 36.56ZM137.375 33.424C137.119 33.424 137.055 33.552 137.055 33.744C137.055 34 137.119 34.064 137.375 34.064C137.631 34.064 137.759 34 137.759 33.744C137.759 33.552 137.631 33.424 137.375 33.424ZM137.375 30.224C137.119 30.224 136.991 30.352 136.991 30.608C136.991 30.864 137.119 30.992 137.375 30.992C137.631 30.992 137.759 30.864 137.759 30.608C137.759 30.352 137.631 30.224 137.375 30.224ZM167.263 52.624L167.199 52.688L167.263 52.752C167.327 52.752 167.391 52.752 167.391 52.688C167.327 52.688 167.263 52.624 167.263 52.624ZM167.263 49.424C167.199 49.424 167.199 49.488 167.199 49.552C167.199 49.68 167.199 49.68 167.263 49.68C167.327 49.68 167.391 49.68 167.391 49.552C167.391 49.488 167.327 49.424 167.263 49.424ZM167.263 46.224C167.135 46.224 167.135 46.288 167.135 46.416C167.135 46.544 167.135 46.608 167.263 46.608C167.391 46.608 167.455 46.544 167.455 46.416C167.455 46.288 167.391 46.224 167.263 46.224ZM167.263 43.088C167.135 43.088 167.071 43.152 167.071 43.28C167.071 43.408 167.135 43.472 167.263 43.472C167.391 43.472 167.519 43.408 167.519 43.28C167.519 43.152 167.391 43.088 167.263 43.088ZM167.263 39.888C167.071 39.888 167.007 40.016 167.007 40.144C167.007 40.336 167.071 40.4 167.263 40.4C167.391 40.4 167.519 40.336 167.519 40.144C167.519 40.016 167.391 39.888 167.263 39.888ZM167.263 36.688C167.071 36.688 167.007 36.816 167.007 37.008C167.007 37.2 167.071 37.264 167.263 37.264C167.455 37.264 167.583 37.2 167.583 37.008C167.583 36.816 167.455 36.688 167.263 36.688ZM167.263 33.488C167.007 33.488 166.943 33.616 166.943 33.872C166.943 34.128 167.007 34.192 167.263 34.192C167.519 34.192 167.647 34.128 167.647 33.872C167.647 33.616 167.519 33.488 167.263 33.488ZM167.263 30.288C167.007 30.288 166.879 30.48 166.879 30.736C166.879 30.992 167.007 31.12 167.263 31.12C167.519 31.12 167.711 30.992 167.711 30.736C167.711 30.48 167.519 30.288 167.263 30.288ZM164.383 52.688L164.319 52.624L164.255 52.688C164.255 52.752 164.255 52.752 164.319 52.752C164.319 52.752 164.383 52.752 164.383 52.688ZM164.319 49.424C164.191 49.424 164.191 49.488 164.191 49.552C164.191 49.68 164.191 49.68 164.319 49.68C164.383 49.68 164.447 49.68 164.447 49.552C164.447 49.488 164.383 49.424 164.319 49.424ZM164.319 43.088C164.127 43.088 164.063 43.152 164.063 43.28C164.063 43.408 164.127 43.472 164.319 43.472C164.447 43.472 164.511 43.408 164.511 43.28C164.511 43.152 164.447 43.088 164.319 43.088ZM164.319 39.888C164.127 39.888 164.063 40.016 164.063 40.144C164.063 40.336 164.127 40.4 164.319 40.4C164.447 40.4 164.575 40.336 164.575 40.144C164.575 40.016 164.447 39.888 164.319 39.888ZM164.319 36.688C164.063 36.688 163.999 36.816 163.999 37.008C163.999 37.2 164.063 37.264 164.319 37.264C164.447 37.264 164.575 37.2 164.575 37.008C164.575 36.816 164.447 36.688 164.319 36.688ZM164.319 33.488C164.063 33.488 163.935 33.616 163.935 33.872C163.935 34.128 164.063 34.192 164.319 34.192C164.511 34.192 164.639 34.128 164.639 33.872C164.639 33.616 164.511 33.488 164.319 33.488ZM164.319 30.288C164.063 30.288 163.935 30.48 163.935 30.736C163.935 30.992 164.063 31.12 164.319 31.12C164.575 31.12 164.703 30.992 164.703 30.736C164.703 30.48 164.575 30.288 164.319 30.288ZM161.311 52.624L161.247 52.688C161.247 52.752 161.247 52.752 161.311 52.752C161.311 52.752 161.375 52.752 161.375 52.688L161.311 52.624ZM161.311 43.088C161.183 43.088 161.119 43.152 161.119 43.28C161.119 43.408 161.183 43.472 161.311 43.472C161.439 43.472 161.503 43.408 161.503 43.28C161.503 43.152 161.439 43.088 161.311 43.088ZM161.311 39.888C161.119 39.888 161.055 40.016 161.055 40.144C161.055 40.336 161.119 40.4 161.311 40.4C161.439 40.4 161.567 40.336 161.567 40.144C161.567 40.016 161.439 39.888 161.311 39.888ZM161.311 36.688C161.055 36.688 160.991 36.816 160.991 37.008C160.991 37.2 161.055 37.264 161.311 37.264C161.503 37.264 161.631 37.2 161.631 37.008C161.631 36.816 161.503 36.688 161.311 36.688ZM161.311 33.488C161.055 33.488 160.991 33.616 160.991 33.872C160.991 34.128 161.055 34.192 161.311 34.192C161.503 34.192 161.631 34.128 161.631 33.872C161.631 33.616 161.503 33.488 161.311 33.488ZM161.311 30.288C161.055 30.288 160.927 30.48 160.927 30.736C160.927 30.992 161.055 31.12 161.311 31.12C161.567 31.12 161.695 30.992 161.695 30.736C161.695 30.48 161.567 30.288 161.311 30.288ZM158.303 52.624L158.239 52.688L158.303 52.752C158.303 52.752 158.367 52.752 158.367 52.688L158.303 52.624ZM158.303 46.224C158.175 46.224 158.175 46.288 158.175 46.416C158.175 46.544 158.175 46.608 158.303 46.608C158.431 46.608 158.495 46.544 158.495 46.416C158.495 46.288 158.431 46.224 158.303 46.224ZM158.303 43.088C158.175 43.088 158.111 43.152 158.111 43.28C158.111 43.408 158.175 43.472 158.303 43.472C158.431 43.472 158.559 43.408 158.559 43.28C158.559 43.152 158.431 43.088 158.303 43.088ZM158.303 39.888C158.111 39.888 158.047 40.016 158.047 40.144C158.047 40.336 158.111 40.4 158.303 40.4C158.431 40.4 158.559 40.336 158.559 40.144C158.559 40.016 158.431 39.888 158.303 39.888ZM158.303 36.688C158.111 36.688 158.047 36.816 158.047 37.008C158.047 37.2 158.111 37.264 158.303 37.264C158.495 37.264 158.623 37.2 158.623 37.008C158.623 36.816 158.495 36.688 158.303 36.688ZM158.303 33.488C158.047 33.488 157.983 33.616 157.983 33.872C157.983 34.128 158.047 34.192 158.303 34.192C158.559 34.192 158.687 34.128 158.687 33.872C158.687 33.616 158.559 33.488 158.303 33.488ZM158.303 30.288C158.047 30.288 157.919 30.48 157.919 30.736C157.919 30.992 158.047 31.12 158.303 31.12C158.559 31.12 158.687 30.992 158.687 30.736C158.687 30.48 158.559 30.288 158.303 30.288ZM155.423 52.688L155.359 52.624L155.231 52.688C155.231 52.752 155.231 52.752 155.359 52.752C155.359 52.752 155.423 52.752 155.423 52.688ZM155.359 46.224C155.231 46.224 155.167 46.288 155.167 46.416C155.167 46.544 155.231 46.608 155.359 46.608C155.423 46.608 155.487 46.544 155.487 46.416C155.487 46.288 155.423 46.224 155.359 46.224ZM155.359 43.088C155.167 43.088 155.103 43.152 155.103 43.28C155.103 43.408 155.167 43.472 155.359 43.472C155.487 43.472 155.551 43.408 155.551 43.28C155.551 43.152 155.487 43.088 155.359 43.088ZM155.359 39.888C155.167 39.888 155.103 40.016 155.103 40.144C155.103 40.336 155.167 40.4 155.359 40.4C155.487 40.4 155.615 40.336 155.615 40.144C155.615 40.016 155.487 39.888 155.359 39.888ZM155.359 36.688C155.103 36.688 155.039 36.816 155.039 37.008C155.039 37.2 155.103 37.264 155.359 37.264C155.487 37.264 155.615 37.2 155.615 37.008C155.615 36.816 155.487 36.688 155.359 36.688ZM155.359 33.488C155.103 33.488 154.975 33.616 154.975 33.872C154.975 34.128 155.103 34.192 155.359 34.192C155.551 34.192 155.679 34.128 155.679 33.872C155.679 33.616 155.551 33.488 155.359 33.488ZM155.359 30.288C155.039 30.288 154.911 30.48 154.911 30.736C154.911 30.992 155.039 31.12 155.359 31.12C155.615 31.12 155.743 30.992 155.743 30.736C155.743 30.48 155.615 30.288 155.359 30.288ZM152.415 52.688L152.351 52.624L152.287 52.688C152.287 52.752 152.287 52.752 152.351 52.752C152.351 52.752 152.415 52.752 152.415 52.688ZM152.351 46.224C152.223 46.224 152.159 46.288 152.159 46.416C152.159 46.544 152.223 46.608 152.351 46.608C152.415 46.608 152.479 46.544 152.479 46.416C152.479 46.288 152.415 46.224 152.351 46.224ZM152.351 43.088C152.223 43.088 152.159 43.152 152.159 43.28C152.159 43.408 152.223 43.472 152.351 43.472C152.479 43.472 152.543 43.408 152.543 43.28C152.543 43.152 152.479 43.088 152.351 43.088ZM152.351 39.888C152.159 39.888 152.095 40.016 152.095 40.144C152.095 40.336 152.159 40.4 152.351 40.4C152.479 40.4 152.607 40.336 152.607 40.144C152.607 40.016 152.479 39.888 152.351 39.888ZM152.351 36.688C152.095 36.688 152.031 36.816 152.031 37.008C152.031 37.2 152.095 37.264 152.351 37.264C152.543 37.264 152.671 37.2 152.671 37.008C152.671 36.816 152.543 36.688 152.351 36.688ZM152.351 33.488C152.095 33.488 152.031 33.616 152.031 33.872C152.031 34.128 152.095 34.192 152.351 34.192C152.543 34.192 152.671 34.128 152.671 33.872C152.671 33.616 152.543 33.488 152.351 33.488ZM152.351 30.288C152.095 30.288 151.967 30.48 151.967 30.736C151.967 30.992 152.095 31.12 152.351 31.12C152.607 31.12 152.735 30.992 152.735 30.736C152.735 30.48 152.607 30.288 152.351 30.288ZM149.343 52.624L149.279 52.688L149.343 52.752C149.343 52.752 149.407 52.752 149.407 52.688L149.343 52.624ZM149.343 43.088C149.215 43.088 149.151 43.152 149.151 43.28C149.151 43.408 149.215 43.472 149.343 43.472C149.471 43.472 149.535 43.408 149.535 43.28C149.535 43.152 149.471 43.088 149.343 43.088ZM149.343 39.888C149.151 39.888 149.087 40.016 149.087 40.144C149.087 40.336 149.151 40.4 149.343 40.4C149.471 40.4 149.599 40.336 149.599 40.144C149.599 40.016 149.471 39.888 149.343 39.888ZM149.343 36.688C149.087 36.688 149.023 36.816 149.023 37.008C149.023 37.2 149.087 37.264 149.343 37.264C149.535 37.264 149.663 37.2 149.663 37.008C149.663 36.816 149.535 36.688 149.343 36.688ZM149.343 33.488C149.087 33.488 149.023 33.616 149.023 33.872C149.023 34.128 149.087 34.192 149.343 34.192C149.535 34.192 149.663 34.128 149.663 33.872C149.663 33.616 149.535 33.488 149.343 33.488ZM149.343 30.288C149.087 30.288 148.959 30.48 148.959 30.736C148.959 30.992 149.087 31.12 149.343 31.12C149.599 31.12 149.727 30.992 149.727 30.736C149.727 30.48 149.599 30.288 149.343 30.288ZM146.335 52.624L146.271 52.688L146.335 52.752C146.399 52.752 146.463 52.752 146.463 52.688C146.399 52.688 146.335 52.624 146.335 52.624ZM146.335 39.888C146.143 39.888 146.079 40.016 146.079 40.144C146.079 40.336 146.143 40.4 146.335 40.4C146.463 40.4 146.591 40.336 146.591 40.144C146.591 40.016 146.463 39.888 146.335 39.888ZM146.335 36.688C146.143 36.688 146.079 36.816 146.079 37.008C146.079 37.2 146.143 37.264 146.335 37.264C146.527 37.264 146.655 37.2 146.655 37.008C146.655 36.816 146.527 36.688 146.335 36.688ZM146.335 33.488C146.079 33.488 146.015 33.616 146.015 33.872C146.015 34.128 146.079 34.192 146.335 34.192C146.591 34.192 146.719 34.128 146.719 33.872C146.719 33.616 146.591 33.488 146.335 33.488ZM146.335 30.288C146.079 30.288 145.951 30.48 145.951 30.736C145.951 30.992 146.079 31.12 146.335 31.12C146.591 31.12 146.783 30.992 146.783 30.736C146.783 30.48 146.591 30.288 146.335 30.288ZM143.455 52.688L143.391 52.624L143.327 52.688C143.327 52.752 143.327 52.752 143.391 52.752C143.391 52.752 143.455 52.752 143.455 52.688ZM143.391 49.424C143.263 49.424 143.263 49.488 143.263 49.552C143.263 49.68 143.263 49.68 143.391 49.68C143.391 49.68 143.455 49.68 143.455 49.552C143.455 49.488 143.391 49.424 143.391 49.424ZM140.383 52.624L140.319 52.688C140.319 52.752 140.319 52.752 140.383 52.752C140.383 52.752 140.447 52.752 140.447 52.688L140.383 52.624ZM140.383 49.424C140.255 49.424 140.255 49.488 140.255 49.552C140.255 49.68 140.255 49.68 140.383 49.68C140.447 49.68 140.511 49.68 140.511 49.552C140.511 49.488 140.447 49.424 140.383 49.424ZM140.383 46.224C140.255 46.224 140.191 46.288 140.191 46.416C140.191 46.544 140.255 46.608 140.383 46.608C140.511 46.608 140.575 46.544 140.575 46.416C140.575 46.288 140.511 46.224 140.383 46.224ZM140.383 43.088C140.255 43.088 140.191 43.152 140.191 43.28C140.191 43.408 140.255 43.472 140.383 43.472C140.511 43.472 140.575 43.408 140.575 43.28C140.575 43.152 140.511 43.088 140.383 43.088ZM154.463 49.04C150.559 49.04 147.551 47.76 145.503 45.2C143.455 42.64 142.431 38.864 142.431 33.936C142.431 33.232 142.431 32.528 142.495 31.824C142.559 31.12 142.623 30.416 142.751 29.776H141.407C141.279 30.416 141.215 31.12 141.151 31.824C141.087 32.528 141.087 33.232 141.087 33.936C141.087 39.184 142.175 43.216 144.479 46.032C146.783 48.848 150.111 50.256 154.527 50.256C156.127 50.256 157.791 50 159.455 49.424C161.119 48.912 162.719 48.08 164.255 46.992L164.383 45.776L163.999 45.648C162.591 46.736 161.119 47.568 159.455 48.144C157.791 48.784 156.127 49.04 154.463 49.04ZM167.263 27.28H143.327C144.095 24.464 145.503 22.352 147.487 20.88C149.471 19.472 152.031 18.704 155.103 18.704C156.639 18.704 158.111 18.96 159.583 19.472C160.991 19.984 162.335 20.624 163.551 21.52H163.935L164.319 20.304C163.039 19.408 161.567 18.704 159.967 18.192C158.303 17.68 156.703 17.424 155.103 17.424C151.647 17.424 148.767 18.32 146.527 19.984C144.287 21.648 142.751 24.08 141.919 27.28H137.375C137.183 27.28 137.119 27.408 137.119 27.536C137.119 27.728 137.183 27.792 137.375 27.792H167.263C167.391 27.792 167.519 27.728 167.519 27.536C167.519 27.408 167.391 27.28 167.263 27.28ZM185.234 17.36C181.394 17.36 178.322 18.384 176.018 20.304C173.714 22.224 172.178 25.04 171.474 28.752L167.378 27.28C167.122 27.28 167.058 27.344 167.058 27.472C166.93 27.728 166.93 27.792 167.186 27.792L195.666 37.904C195.666 37.84 195.73 37.776 195.73 37.648C195.73 37.584 195.73 37.52 195.794 37.392L172.754 29.2C173.33 25.744 174.674 23.184 176.786 21.392C178.898 19.6 181.714 18.704 185.17 18.704C189.202 18.704 192.274 19.984 194.45 22.48C196.562 24.976 197.65 28.624 197.65 33.36C197.65 38.48 196.498 42.32 194.258 45.008C192.018 47.696 188.818 49.04 184.658 49.04C180.626 49.04 177.554 47.76 175.442 45.136C173.33 42.576 172.306 38.8 172.306 33.872C172.306 33.488 172.306 33.168 172.306 32.784C172.306 32.464 172.37 32.144 172.434 31.76L171.09 31.312C171.026 31.76 170.962 32.208 170.962 32.592C170.962 33.04 170.962 33.488 170.962 33.936C170.962 39.184 172.114 43.216 174.482 46.032C176.85 48.848 180.242 50.256 184.658 50.256C189.266 50.256 192.786 48.848 195.218 45.904C197.65 42.96 198.93 38.736 198.93 33.232C198.93 28.176 197.714 24.272 195.41 21.52C193.042 18.768 189.65 17.36 185.234 17.36ZM202.77 39.888L200.082 38.928C199.954 39.184 199.954 39.376 199.954 39.44L202.578 40.4H202.642C202.77 40.4 202.898 40.336 202.898 40.208C202.962 40.08 202.898 40.016 202.77 39.888ZM202.642 52.624L202.578 52.688L202.642 52.752C202.706 52.752 202.77 52.752 202.77 52.688C202.706 52.688 202.642 52.624 202.642 52.624ZM202.642 49.424C202.578 49.424 202.578 49.488 202.578 49.552C202.578 49.68 202.578 49.68 202.642 49.68C202.706 49.68 202.77 49.68 202.77 49.552C202.77 49.488 202.706 49.424 202.642 49.424ZM202.642 46.224C202.514 46.224 202.514 46.288 202.514 46.416C202.514 46.544 202.514 46.608 202.642 46.608C202.77 46.608 202.834 46.544 202.834 46.416C202.834 46.288 202.77 46.224 202.642 46.224ZM202.642 43.088C202.514 43.088 202.45 43.152 202.45 43.28C202.45 43.408 202.514 43.472 202.642 43.472C202.77 43.472 202.898 43.408 202.898 43.28C202.898 43.152 202.77 43.088 202.642 43.088ZM199.442 52.624L199.378 52.688L199.442 52.752C199.442 52.752 199.506 52.752 199.506 52.688L199.442 52.624ZM199.442 49.424C199.314 49.424 199.314 49.488 199.314 49.552C199.314 49.68 199.314 49.68 199.442 49.68C199.506 49.68 199.57 49.68 199.57 49.552C199.57 49.488 199.506 49.424 199.442 49.424ZM199.442 46.224C199.314 46.224 199.314 46.288 199.314 46.416C199.314 46.544 199.314 46.608 199.442 46.608C199.57 46.608 199.634 46.544 199.634 46.416C199.634 46.288 199.57 46.224 199.442 46.224ZM199.442 43.088C199.314 43.088 199.25 43.152 199.25 43.28C199.25 43.408 199.314 43.472 199.442 43.472C199.57 43.472 199.634 43.408 199.634 43.28C199.634 43.152 199.57 43.088 199.442 43.088ZM196.242 52.624L196.178 52.688C196.178 52.752 196.178 52.752 196.242 52.752C196.242 52.752 196.306 52.752 196.306 52.688L196.242 52.624ZM196.242 49.424C196.114 49.424 196.114 49.488 196.114 49.552C196.114 49.68 196.114 49.68 196.242 49.68C196.306 49.68 196.37 49.68 196.37 49.552C196.37 49.488 196.306 49.424 196.242 49.424ZM193.106 52.688L193.042 52.624L192.978 52.688C192.978 52.752 192.978 52.752 193.042 52.752C193.042 52.752 193.106 52.752 193.106 52.688ZM193.042 43.088C192.85 43.088 192.786 43.152 192.786 43.28C192.786 43.408 192.85 43.472 193.042 43.472C193.17 43.472 193.234 43.408 193.234 43.28C193.234 43.152 193.17 43.088 193.042 43.088ZM193.042 39.888C192.85 39.888 192.786 40.016 192.786 40.144C192.786 40.336 192.85 40.4 193.042 40.4C193.17 40.4 193.298 40.336 193.298 40.144C193.298 40.016 193.17 39.888 193.042 39.888ZM189.778 52.624L189.714 52.688L189.778 52.752C189.778 52.752 189.842 52.752 189.842 52.688L189.778 52.624ZM189.778 43.088C189.65 43.088 189.586 43.152 189.586 43.28C189.586 43.408 189.65 43.472 189.778 43.472C189.906 43.472 190.034 43.408 190.034 43.28C190.034 43.152 189.906 43.088 189.778 43.088ZM189.778 39.888C189.586 39.888 189.522 40.016 189.522 40.144C189.522 40.336 189.586 40.4 189.778 40.4C189.906 40.4 190.034 40.336 190.034 40.144C190.034 40.016 189.906 39.888 189.778 39.888ZM186.578 52.624L186.514 52.688C186.514 52.752 186.514 52.752 186.578 52.752C186.578 52.752 186.642 52.752 186.642 52.688L186.578 52.624ZM186.578 46.224C186.45 46.224 186.45 46.288 186.45 46.416C186.45 46.544 186.45 46.608 186.578 46.608C186.706 46.608 186.77 46.544 186.77 46.416C186.77 46.288 186.706 46.224 186.578 46.224ZM186.578 43.088C186.45 43.088 186.386 43.152 186.386 43.28C186.386 43.408 186.45 43.472 186.578 43.472C186.706 43.472 186.77 43.408 186.77 43.28C186.77 43.152 186.706 43.088 186.578 43.088ZM186.578 39.888C186.386 39.888 186.322 40.016 186.322 40.144C186.322 40.336 186.386 40.4 186.578 40.4C186.706 40.4 186.834 40.336 186.834 40.144C186.834 40.016 186.706 39.888 186.578 39.888ZM183.442 52.688L183.378 52.624L183.314 52.688C183.314 52.752 183.314 52.752 183.378 52.752C183.378 52.752 183.442 52.752 183.442 52.688ZM183.378 46.224C183.25 46.224 183.186 46.288 183.186 46.416C183.186 46.544 183.25 46.608 183.378 46.608C183.442 46.608 183.506 46.544 183.506 46.416C183.506 46.288 183.442 46.224 183.378 46.224ZM183.378 43.088C183.25 43.088 183.186 43.152 183.186 43.28C183.186 43.408 183.25 43.472 183.378 43.472C183.506 43.472 183.57 43.408 183.57 43.28C183.57 43.152 183.506 43.088 183.378 43.088ZM183.378 39.888C183.186 39.888 183.122 40.016 183.122 40.144C183.122 40.336 183.186 40.4 183.378 40.4C183.506 40.4 183.634 40.336 183.634 40.144C183.634 40.016 183.506 39.888 183.378 39.888ZM183.378 36.688C183.122 36.688 183.058 36.816 183.058 37.008C183.058 37.2 183.122 37.264 183.378 37.264C183.57 37.264 183.698 37.2 183.698 37.008C183.698 36.816 183.57 36.688 183.378 36.688ZM180.242 52.688L180.178 52.624L180.05 52.688C180.05 52.752 180.05 52.752 180.178 52.752C180.178 52.752 180.242 52.752 180.242 52.688ZM180.178 43.088C179.986 43.088 179.922 43.152 179.922 43.28C179.922 43.408 179.986 43.472 180.178 43.472C180.306 43.472 180.37 43.408 180.37 43.28C180.37 43.152 180.306 43.088 180.178 43.088ZM180.178 39.888C179.986 39.888 179.922 40.016 179.922 40.144C179.922 40.336 179.986 40.4 180.178 40.4C180.306 40.4 180.434 40.336 180.434 40.144C180.434 40.016 180.306 39.888 180.178 39.888ZM180.178 36.688C179.922 36.688 179.858 36.816 179.858 37.008C179.858 37.2 179.922 37.264 180.178 37.264C180.306 37.264 180.434 37.2 180.434 37.008C180.434 36.816 180.306 36.688 180.178 36.688ZM176.914 52.624L176.85 52.688L176.914 52.752C176.914 52.752 176.978 52.752 176.978 52.688L176.914 52.624ZM176.914 43.088C176.786 43.088 176.722 43.152 176.722 43.28C176.722 43.408 176.786 43.472 176.914 43.472C177.042 43.472 177.17 43.408 177.17 43.28C177.17 43.152 177.042 43.088 176.914 43.088ZM176.914 39.888C176.722 39.888 176.658 40.016 176.658 40.144C176.658 40.336 176.722 40.4 176.914 40.4C177.042 40.4 177.17 40.336 177.17 40.144C177.17 40.016 177.042 39.888 176.914 39.888ZM176.914 36.688C176.722 36.688 176.658 36.816 176.658 37.008C176.658 37.2 176.722 37.264 176.914 37.264C177.106 37.264 177.234 37.2 177.234 37.008C177.234 36.816 177.106 36.688 176.914 36.688ZM176.914 33.488C176.658 33.488 176.594 33.616 176.594 33.872C176.594 34.128 176.658 34.192 176.914 34.192C177.17 34.192 177.298 34.128 177.298 33.872C177.298 33.616 177.17 33.488 176.914 33.488ZM173.714 52.624L173.65 52.688C173.65 52.752 173.65 52.752 173.714 52.752C173.714 52.752 173.778 52.752 173.778 52.688L173.714 52.624ZM173.714 49.424C173.586 49.424 173.586 49.488 173.586 49.552C173.586 49.68 173.586 49.68 173.714 49.68C173.778 49.68 173.842 49.68 173.842 49.552C173.842 49.488 173.778 49.424 173.714 49.424ZM170.578 52.688L170.514 52.624L170.45 52.688C170.45 52.752 170.45 52.752 170.514 52.752C170.514 52.752 170.578 52.752 170.578 52.688ZM170.514 49.424C170.386 49.424 170.386 49.488 170.386 49.552C170.386 49.68 170.386 49.68 170.514 49.68C170.514 49.68 170.578 49.68 170.578 49.552C170.578 49.488 170.514 49.424 170.514 49.424ZM170.514 46.224C170.386 46.224 170.322 46.288 170.322 46.416C170.322 46.544 170.386 46.608 170.514 46.608C170.578 46.608 170.642 46.544 170.642 46.416C170.642 46.288 170.578 46.224 170.514 46.224ZM170.514 43.088C170.322 43.088 170.258 43.152 170.258 43.28C170.258 43.408 170.322 43.472 170.514 43.472C170.642 43.472 170.706 43.408 170.706 43.28C170.706 43.152 170.642 43.088 170.514 43.088ZM232.129 52.688L232.065 52.624L231.937 52.688C231.937 52.752 231.937 52.752 232.065 52.752C232.065 52.752 232.129 52.752 232.129 52.688ZM228.865 52.688L228.801 52.624L228.673 52.688C228.673 52.752 228.673 52.752 228.801 52.752C228.801 52.752 228.865 52.752 228.865 52.688ZM225.601 52.688L225.537 52.624L225.409 52.688C225.409 52.752 225.409 52.752 225.537 52.752C225.537 52.752 225.601 52.752 225.601 52.688ZM222.337 52.688L222.273 52.624L222.145 52.688C222.145 52.752 222.145 52.752 222.273 52.752C222.273 52.752 222.337 52.752 222.337 52.688ZM219.073 52.688L219.009 52.624L218.945 52.688C218.945 52.752 218.945 52.752 219.009 52.752C219.009 52.752 219.073 52.752 219.073 52.688ZM215.809 52.688L215.745 52.624L215.681 52.688C215.681 52.752 215.681 52.752 215.745 52.752C215.745 52.752 215.809 52.752 215.809 52.688ZM215.745 46.224C215.617 46.224 215.553 46.288 215.553 46.416C215.553 46.544 215.617 46.608 215.745 46.608C215.809 46.608 215.873 46.544 215.873 46.416C215.873 46.288 215.809 46.224 215.745 46.224ZM212.545 52.688L212.481 52.624L212.417 52.688C212.417 52.752 212.417 52.752 212.481 52.752C212.481 52.752 212.545 52.752 212.545 52.688ZM209.281 52.688L209.217 52.624L209.153 52.688C209.153 52.752 209.153 52.752 209.217 52.752C209.217 52.752 209.281 52.752 209.281 52.688ZM206.017 52.688L205.953 52.624L205.889 52.688C205.889 52.752 205.889 52.752 205.953 52.752C205.953 52.752 206.017 52.752 206.017 52.688ZM205.953 49.424C205.825 49.424 205.825 49.488 205.825 49.552C205.825 49.68 205.825 49.68 205.953 49.68C205.953 49.68 206.017 49.68 206.017 49.552C206.017 49.488 205.953 49.424 205.953 49.424ZM205.953 46.224C205.825 46.224 205.761 46.288 205.761 46.416C205.761 46.544 205.825 46.608 205.953 46.608C206.017 46.608 206.081 46.544 206.081 46.416C206.081 46.288 206.017 46.224 205.953 46.224ZM238.657 52.432L227.393 48.528C232.321 45.84 234.817 40.592 234.817 32.784C234.817 27.856 233.537 24.08 231.041 21.392C228.545 18.704 224.961 17.36 220.225 17.36L209.537 17.616V50C210.113 50.064 210.881 50.128 211.905 50.128C212.929 50.128 213.953 50.192 214.977 50.192C216.001 50.192 216.897 50.256 217.793 50.256C218.689 50.256 219.265 50.256 219.649 50.256C221.057 50.256 222.401 50.128 223.681 49.872L221.121 48.976C220.865 48.976 220.673 49.04 220.417 49.04C220.161 49.04 219.969 49.04 219.713 49.04C219.393 49.04 218.881 49.04 218.113 49.04C217.345 49.04 216.513 48.976 215.617 48.976C214.721 48.976 213.825 48.912 212.929 48.848C212.033 48.848 211.329 48.784 210.817 48.72V18.96C211.329 18.96 212.033 18.96 212.993 18.896C213.889 18.896 214.849 18.832 215.873 18.832C216.833 18.832 217.729 18.768 218.561 18.768C219.329 18.768 219.905 18.704 220.161 18.704C224.513 18.704 227.777 19.92 230.081 22.352C232.385 24.784 233.537 28.24 233.537 32.848C233.537 36.816 232.833 40.016 231.553 42.512C230.209 45.072 228.289 46.864 225.729 47.888L212.417 43.28V43.856L238.465 52.944H238.529C238.657 52.944 238.785 52.944 238.785 52.816C238.785 52.688 238.785 52.56 238.657 52.432ZM202.433 40.016C202.369 40.208 202.433 40.336 202.561 40.4L207.937 42.256V41.68L202.753 39.888C202.497 39.824 202.433 39.888 202.433 40.016ZM264.868 52.624L264.804 52.688L264.868 52.752C264.932 52.752 264.996 52.752 264.996 52.688C264.932 52.688 264.868 52.624 264.868 52.624ZM264.868 49.424C264.804 49.424 264.804 49.488 264.804 49.552C264.804 49.68 264.804 49.68 264.868 49.68C264.932 49.68 264.996 49.68 264.996 49.552C264.996 49.488 264.932 49.424 264.868 49.424ZM264.868 46.224C264.74 46.224 264.74 46.288 264.74 46.416C264.74 46.544 264.74 46.608 264.868 46.608C264.996 46.608 265.06 46.544 265.06 46.416C265.06 46.288 264.996 46.224 264.868 46.224ZM264.868 43.088C264.74 43.088 264.676 43.152 264.676 43.28C264.676 43.408 264.74 43.472 264.868 43.472C264.996 43.472 265.124 43.408 265.124 43.28C265.124 43.152 264.996 43.088 264.868 43.088ZM264.868 39.888C264.676 39.888 264.612 40.016 264.612 40.144C264.612 40.336 264.676 40.4 264.868 40.4C264.996 40.4 265.124 40.336 265.124 40.144C265.124 40.016 264.996 39.888 264.868 39.888ZM264.868 36.688C264.676 36.688 264.612 36.816 264.612 37.008C264.612 37.2 264.676 37.264 264.868 37.264C265.06 37.264 265.188 37.2 265.188 37.008C265.188 36.816 265.06 36.688 264.868 36.688ZM264.868 33.488C264.612 33.488 264.548 33.616 264.548 33.872C264.548 34.128 264.612 34.192 264.868 34.192C265.124 34.192 265.252 34.128 265.252 33.872C265.252 33.616 265.124 33.488 264.868 33.488ZM264.868 30.288C264.612 30.288 264.484 30.48 264.484 30.736C264.484 30.992 264.612 31.12 264.868 31.12C265.124 31.12 265.316 30.992 265.316 30.736C265.316 30.48 265.124 30.288 264.868 30.288ZM264.868 27.152C264.612 27.152 264.484 27.28 264.484 27.536C264.484 27.856 264.612 27.984 264.868 27.984C265.124 27.984 265.316 27.856 265.316 27.536C265.316 27.28 265.124 27.152 264.868 27.152ZM264.868 23.952C264.548 23.952 264.42 24.144 264.42 24.4C264.42 24.784 264.548 24.912 264.868 24.912C265.188 24.912 265.38 24.784 265.38 24.4C265.38 24.144 265.188 23.952 264.868 23.952ZM264.868 20.752C264.484 20.752 264.356 20.944 264.356 21.264C264.356 21.648 264.484 21.84 264.868 21.84C265.252 21.84 265.444 21.648 265.444 21.264C265.444 20.944 265.252 20.752 264.868 20.752ZM264.868 17.552C264.74 17.552 264.612 17.616 264.484 17.744C264.356 17.872 264.292 18 264.292 18.128C264.292 18.32 264.356 18.448 264.484 18.576C264.612 18.704 264.74 18.704 264.868 18.704C265.252 18.704 265.444 18.512 265.444 18.128C265.444 17.744 265.252 17.552 264.868 17.552ZM261.604 52.624L261.54 52.688C261.54 52.752 261.54 52.752 261.604 52.752C261.604 52.752 261.668 52.752 261.668 52.688L261.604 52.624ZM261.604 46.224C261.476 46.224 261.412 46.288 261.412 46.416C261.412 46.544 261.476 46.608 261.604 46.608C261.732 46.608 261.796 46.544 261.796 46.416C261.796 46.288 261.732 46.224 261.604 46.224ZM261.604 43.088C261.476 43.088 261.412 43.152 261.412 43.28C261.412 43.408 261.476 43.472 261.604 43.472C261.732 43.472 261.796 43.408 261.796 43.28C261.796 43.152 261.732 43.088 261.604 43.088ZM261.604 39.888C261.412 39.888 261.348 40.016 261.348 40.144C261.348 40.336 261.412 40.4 261.604 40.4C261.732 40.4 261.86 40.336 261.86 40.144C261.86 40.016 261.732 39.888 261.604 39.888ZM261.604 36.688C261.348 36.688 261.284 36.816 261.284 37.008C261.284 37.2 261.348 37.264 261.604 37.264C261.796 37.264 261.924 37.2 261.924 37.008C261.924 36.816 261.796 36.688 261.604 36.688ZM261.604 33.488C261.348 33.488 261.284 33.616 261.284 33.872C261.284 34.128 261.348 34.192 261.604 34.192C261.796 34.192 261.924 34.128 261.924 33.872C261.924 33.616 261.796 33.488 261.604 33.488ZM261.604 30.288C261.348 30.288 261.22 30.48 261.22 30.736C261.22 30.992 261.348 31.12 261.604 31.12C261.86 31.12 261.988 30.992 261.988 30.736C261.988 30.48 261.86 30.288 261.604 30.288ZM261.604 27.152C261.284 27.152 261.156 27.28 261.156 27.536C261.156 27.856 261.284 27.984 261.604 27.984C261.86 27.984 262.052 27.856 262.052 27.536C262.052 27.28 261.86 27.152 261.604 27.152ZM261.604 23.952C261.22 23.952 261.092 24.144 261.092 24.4C261.092 24.784 261.22 24.912 261.604 24.912C261.924 24.912 262.116 24.784 262.116 24.4C262.116 24.144 261.924 23.952 261.604 23.952ZM258.276 52.624L258.212 52.688L258.276 52.752C258.34 52.752 258.404 52.752 258.404 52.688C258.34 52.688 258.276 52.624 258.276 52.624ZM258.276 46.224C258.148 46.224 258.148 46.288 258.148 46.416C258.148 46.544 258.148 46.608 258.276 46.608C258.404 46.608 258.468 46.544 258.468 46.416C258.468 46.288 258.404 46.224 258.276 46.224ZM258.276 43.088C258.148 43.088 258.084 43.152 258.084 43.28C258.084 43.408 258.148 43.472 258.276 43.472C258.404 43.472 258.532 43.408 258.532 43.28C258.532 43.152 258.404 43.088 258.276 43.088ZM258.276 39.888C258.084 39.888 258.02 40.016 258.02 40.144C258.02 40.336 258.084 40.4 258.276 40.4C258.404 40.4 258.532 40.336 258.532 40.144C258.532 40.016 258.404 39.888 258.276 39.888ZM258.276 36.688C258.084 36.688 258.02 36.816 258.02 37.008C258.02 37.2 258.084 37.264 258.276 37.264C258.468 37.264 258.596 37.2 258.596 37.008C258.596 36.816 258.468 36.688 258.276 36.688ZM258.276 30.288C258.02 30.288 257.892 30.48 257.892 30.736C257.892 30.992 258.02 31.12 258.276 31.12C258.532 31.12 258.724 30.992 258.724 30.736C258.724 30.48 258.532 30.288 258.276 30.288ZM255.012 52.624L254.948 52.688C254.948 52.752 254.948 52.752 255.012 52.752C255.012 52.752 255.076 52.752 255.076 52.688L255.012 52.624ZM255.012 46.224C254.884 46.224 254.82 46.288 254.82 46.416C254.82 46.544 254.884 46.608 255.012 46.608C255.14 46.608 255.204 46.544 255.204 46.416C255.204 46.288 255.14 46.224 255.012 46.224ZM255.012 43.088C254.884 43.088 254.82 43.152 254.82 43.28C254.82 43.408 254.884 43.472 255.012 43.472C255.14 43.472 255.204 43.408 255.204 43.28C255.204 43.152 255.14 43.088 255.012 43.088ZM255.012 39.888C254.82 39.888 254.756 40.016 254.756 40.144C254.756 40.336 254.82 40.4 255.012 40.4C255.14 40.4 255.268 40.336 255.268 40.144C255.268 40.016 255.14 39.888 255.012 39.888ZM255.012 36.688C254.756 36.688 254.692 36.816 254.692 37.008C254.692 37.2 254.756 37.264 255.012 37.264C255.204 37.264 255.332 37.2 255.332 37.008C255.332 36.816 255.204 36.688 255.012 36.688ZM251.684 52.624L251.62 52.688L251.684 52.752C251.748 52.752 251.812 52.752 251.812 52.688C251.748 52.688 251.684 52.624 251.684 52.624ZM251.684 46.224C251.556 46.224 251.556 46.288 251.556 46.416C251.556 46.544 251.556 46.608 251.684 46.608C251.812 46.608 251.876 46.544 251.876 46.416C251.876 46.288 251.812 46.224 251.684 46.224ZM251.684 43.088C251.556 43.088 251.492 43.152 251.492 43.28C251.492 43.408 251.556 43.472 251.684 43.472C251.812 43.472 251.94 43.408 251.94 43.28C251.94 43.152 251.812 43.088 251.684 43.088ZM248.42 46.224C248.292 46.224 248.228 46.288 248.228 46.416C248.228 46.544 248.292 46.608 248.42 46.608C248.548 46.608 248.612 46.544 248.612 46.416C248.612 46.288 248.548 46.224 248.42 46.224ZM248.42 43.088C248.292 43.088 248.228 43.152 248.228 43.28C248.228 43.408 248.292 43.472 248.42 43.472C248.548 43.472 248.612 43.408 248.612 43.28C248.612 43.152 248.548 43.088 248.42 43.088ZM251.684 39.888C251.492 39.888 251.428 40.016 251.428 40.144C251.428 40.336 251.492 40.4 251.684 40.4C251.812 40.4 251.94 40.336 251.94 40.144C251.94 40.016 251.812 39.888 251.684 39.888ZM248.42 52.624L248.356 52.688C248.356 52.752 248.356 52.752 248.42 52.752C248.42 52.752 248.484 52.752 248.484 52.688L248.42 52.624ZM245.092 52.624L245.028 52.688L245.092 52.752C245.156 52.752 245.22 52.752 245.22 52.688C245.156 52.688 245.092 52.624 245.092 52.624ZM241.828 52.624L241.764 52.688C241.764 52.752 241.764 52.752 241.828 52.752C241.828 52.752 241.892 52.752 241.892 52.688L241.828 52.624ZM265.06 14.736C264.868 14.672 264.74 14.736 264.676 14.864L262.692 17.616H245.412V42.32L238.308 52.56C238.18 52.688 238.244 52.816 238.372 52.944H238.5C238.628 52.944 238.692 52.944 238.756 52.88L250.532 36.048H249.828L246.692 40.528V34.448H259.108L259.3 33.36L259.172 33.104H246.692V18.896L261.796 18.96L253.028 31.504H253.668L265.124 15.184C265.188 15.056 265.188 14.864 265.06 14.736ZM261.988 48.72H246.692V44.88L245.412 46.736V50H261.924L262.18 48.976L261.988 48.72ZM238.847 4.496L239.935 4.368C240.383 4.368 240.703 4.496 240.959 4.688C241.215 4.944 241.343 5.264 241.343 5.712C241.343 6.224 241.151 6.544 240.895 6.672C240.639 6.928 240.319 6.992 239.807 6.992C239.295 6.992 238.719 6.864 238.079 6.608L237.887 7.12C238.271 7.248 238.591 7.376 238.911 7.44C239.231 7.568 239.551 7.568 239.807 7.568C241.215 7.568 241.919 6.992 241.919 5.712C241.919 4.816 241.471 4.304 240.703 4.048C241.023 3.856 241.279 3.664 241.407 3.472C241.535 3.28 241.663 2.96 241.663 2.576C241.663 2.064 241.471 1.616 241.151 1.36C240.767 1.104 240.383 0.975998 239.871 0.975998C239.679 0.975998 239.359 1.04 238.975 1.104C238.719 1.232 238.591 1.296 238.463 1.296C238.335 1.36 238.207 1.424 238.079 1.488L238.271 1.936C238.975 1.68 239.487 1.488 239.807 1.488C240.127 1.488 240.447 1.616 240.703 1.744C240.959 2 241.087 2.256 241.087 2.64C241.087 3.024 240.959 3.344 240.703 3.472C240.447 3.728 240.063 3.856 239.487 3.92L238.783 4.048L238.847 4.496ZM247.547 7.44V6.928H246.075V1.04H245.563L243.579 1.936L243.835 2.448L245.499 1.68V6.928H243.771V7.44H247.547ZM248.695 7.696L249.079 7.888L253.239 0.591999L252.855 0.399998L248.695 7.696ZM254.771 4.24C254.771 5.456 254.899 6.288 255.219 6.736C255.475 7.248 255.987 7.504 256.691 7.504C257.331 7.504 257.779 7.248 258.163 6.736C258.419 6.288 258.611 5.456 258.611 4.24C258.611 3.088 258.419 2.256 258.163 1.744C257.779 1.232 257.331 0.975998 256.691 0.975998C255.987 0.975998 255.475 1.232 255.219 1.744C254.899 2.256 254.771 3.088 254.771 4.24ZM255.667 6.352C255.475 5.968 255.411 5.264 255.411 4.24C255.411 3.216 255.475 2.512 255.667 2.128C255.795 1.744 256.179 1.488 256.691 1.488C257.203 1.488 257.523 1.744 257.715 2.128C257.779 2.384 257.843 2.64 257.907 2.96C257.907 3.344 257.971 3.728 257.971 4.24C257.971 5.136 257.843 5.84 257.651 6.352C257.523 6.8 257.203 6.992 256.691 6.992C256.179 6.992 255.795 6.8 255.667 6.352ZM259.951 5.776C259.951 6.288 260.079 6.736 260.463 7.056C260.847 7.44 261.359 7.568 261.999 7.568C262.575 7.568 263.087 7.44 263.535 7.056C263.855 6.736 264.047 6.288 264.047 5.776C264.047 5.008 263.663 4.432 262.959 4.176C263.599 3.92 263.919 3.472 263.919 2.704C263.919 2.256 263.727 1.872 263.407 1.488C263.023 1.168 262.575 0.975998 261.999 0.975998C261.359 0.975998 260.911 1.168 260.591 1.488C260.207 1.872 260.079 2.256 260.079 2.704C260.079 3.408 260.399 3.92 261.039 4.176C260.271 4.432 259.951 5.008 259.951 5.776ZM261.999 4.432C262.447 4.432 262.831 4.56 263.087 4.816C263.343 5.072 263.471 5.392 263.471 5.776C263.471 6.224 263.343 6.544 263.087 6.672C262.831 6.928 262.447 7.056 261.999 7.056C261.487 7.056 261.167 6.928 260.911 6.672C260.655 6.544 260.527 6.224 260.527 5.776C260.527 5.392 260.655 5.072 260.911 4.816C261.167 4.56 261.487 4.432 261.999 4.432ZM261.999 1.488C262.383 1.488 262.703 1.616 263.023 1.808C263.215 2.128 263.343 2.448 263.343 2.704C263.343 3.088 263.215 3.408 263.023 3.6C262.767 3.856 262.447 3.92 261.999 3.92C261.615 3.92 261.231 3.856 260.975 3.6C260.719 3.344 260.655 3.024 260.655 2.704C260.655 2.448 260.719 2.128 260.975 1.808C261.231 1.616 261.615 1.488 261.999 1.488Z" fill="black"/>
</svg>
